<?xml version="1.0" encoding="utf-8"?>
<!-- Generator: Adobe Illustrator 19.0.1, SVG Export Plug-In . SVG Version: 6.00 Build 0)  -->
<svg version="1.1" id="Layer_1" xmlns="http://www.w3.org/2000/svg" xmlns:xlink="http://www.w3.org/1999/xlink" x="0px" y="0px"
	 viewBox="0 -17.7 1024 595.7" style="enable-background:new 0 -17.7 1024 595.7;" xml:space="preserve">
<style type="text/css">
	.st0{fill:url(#XMLID_2_);}
	.st1{opacity:5.000000e-002;}
	.st2{fill:url(#XMLID_3_);}
	.st3{fill:url(#XMLID_4_);}
	.st4{fill:url(#XMLID_5_);}
	.st5{fill:url(#XMLID_6_);}
	.st6{fill:url(#XMLID_7_);}
	.st7{fill:url(#XMLID_8_);}
	.st8{fill:url(#XMLID_9_);}
	.st9{fill:url(#XMLID_10_);}
	.st10{fill:url(#XMLID_11_);}
	.st11{fill:url(#XMLID_12_);}
	.st12{fill:url(#XMLID_13_);}
	.st13{fill:url(#XMLID_14_);}
	.st14{fill:url(#XMLID_15_);}
	.st15{fill:url(#XMLID_16_);}
	.st16{fill:url(#XMLID_17_);}
	.st17{fill:url(#XMLID_19_);}
	.st18{fill:url(#XMLID_20_);}
	.st19{fill:url(#XMLID_21_);}
	.st20{fill:url(#XMLID_22_);}
	.st21{fill:url(#XMLID_23_);}
	.st22{fill:url(#XMLID_24_);}
	.st23{fill:url(#XMLID_25_);}
	.st24{fill:url(#XMLID_26_);}
	.st25{fill:url(#XMLID_27_);}
	.st26{fill:url(#XMLID_28_);}
	.st27{fill:url(#XMLID_29_);}
	.st28{fill:url(#XMLID_30_);}
	.st29{fill:url(#XMLID_31_);}
	.st30{fill:url(#XMLID_32_);}
	.st31{fill:url(#XMLID_33_);}
	.st32{fill:#C7DA4C;}
	.st33{fill:#A7BE25;}
	.st34{fill:none;stroke:#907A49;stroke-width:9;stroke-linecap:round;stroke-linejoin:round;stroke-miterlimit:10;}
	.st35{opacity:0.5;}
	.st36{fill:#907A49;}
	.st37{fill:#5D8632;}
	.st38{fill:#A5B224;}
	.st39{fill:#FDD835;}
	.st40{fill:#7CB342;}
	.st41{fill:url(#XMLID_34_);}
	.st42{fill:url(#XMLID_35_);}
	.st43{fill:url(#XMLID_36_);}
	.st44{fill:#CCCBCB;}
	.st45{fill:#B3B2B3;}
	.st46{fill:none;stroke:#616262;stroke-width:1.2039;stroke-miterlimit:10;}
	.st47{fill:none;stroke:#616262;stroke-width:2.8611;stroke-miterlimit:10;}
	.st48{fill:#9FC41A;}
	.st49{fill:#82AA13;}
	.st50{fill:none;}
	.st51{fill:#808080;}
	.st52{fill:none;stroke:#B3B3B3;stroke-width:0.8;stroke-miterlimit:10;}
	.st53{fill:#B3B3B3;}
	.st54{fill:#CCCCCC;}
	.st55{opacity:0.95;}
	.st56{opacity:0.8;fill:#008191;enable-background:new    ;}
	.st57{fill:#00ACC1;}
	.st58{opacity:0.7;}
	.st59{fill:#06314F;}
	.st60{opacity:0.8;clip-path:url(#SVGID_2_);fill:#008191;enable-background:new    ;}
	.st61{opacity:0.8;clip-path:url(#SVGID_4_);fill:#008191;enable-background:new    ;}
	.st62{opacity:0.8;clip-path:url(#SVGID_6_);fill:#008191;enable-background:new    ;}
	.st63{opacity:0.8;clip-path:url(#SVGID_8_);fill:#008191;enable-background:new    ;}
	.st64{opacity:0.8;clip-path:url(#SVGID_10_);fill:#008191;enable-background:new    ;}
	.st65{opacity:0.8;clip-path:url(#SVGID_12_);fill:#008191;enable-background:new    ;}
	.st66{fill:#D94058;}
	.st67{fill:#E24758;}
	.st68{fill:#5A2E13;}
	.st69{fill:#39A5AA;}
	.st70{fill:#009B9F;}
	.st71{fill:#73B6BB;}
	.st72{fill:#385A72;}
</style>
<radialGradient id="XMLID_2_" cx="263.5277" cy="751.1866" r="1099.2311" gradientTransform="matrix(0.5717 0 0 -0.2407 362.296 468.6106)" gradientUnits="userSpaceOnUse">
	<stop  offset="3.281460e-007" style="stop-color:#E84538"/>
	<stop  offset="1" style="stop-color:#AD2333"/>
</radialGradient>
<rect id="XMLID_18_" x="-0.2" y="-17.7" class="st0" width="1026.3" height="611"/>
<g id="XMLID_4081_" class="st1">
	<g>
		<g id="XMLID_384_">
			
				<linearGradient id="XMLID_3_" gradientUnits="userSpaceOnUse" x1="514.8" y1="266" x2="514.8" y2="-23.3" gradientTransform="matrix(1 0 0 -1 0 560.6)">
				<stop  offset="0" style="stop-color:#EDEEEF;stop-opacity:0"/>
				<stop  offset="0.509" style="stop-color:#FFFFFF"/>
				<stop  offset="1" style="stop-color:#ECECED;stop-opacity:0"/>
			</linearGradient>
			<polygon id="XMLID_386_" class="st2" points="514.8,294.6 492.8,583.9 536.8,583.9 			"/>
			
				<linearGradient id="XMLID_4_" gradientUnits="userSpaceOnUse" x1="514.8" y1="569" x2="514.8" y2="282.1" gradientTransform="matrix(1 0 0 -1 0 560.6)">
				<stop  offset="0" style="stop-color:#EDEEEF;stop-opacity:0"/>
				<stop  offset="0.509" style="stop-color:#FFFFFF"/>
				<stop  offset="1" style="stop-color:#ECECED;stop-opacity:0"/>
			</linearGradient>
			<polygon id="XMLID_385_" class="st3" points="536.6,-8.4 493,-8.4 514.8,278.5 			"/>
		</g>
		<g id="XMLID_381_">
			
				<linearGradient id="XMLID_5_" gradientUnits="userSpaceOnUse" x1="446.75" y1="266.2" x2="446.75" y2="-23.3" gradientTransform="matrix(1 0 0 -1 0 560.6)">
				<stop  offset="0" style="stop-color:#EDEEEF;stop-opacity:0"/>
				<stop  offset="0.509" style="stop-color:#FFFFFF"/>
				<stop  offset="1" style="stop-color:#ECECED;stop-opacity:0"/>
			</linearGradient>
			<polygon id="XMLID_383_" class="st4" points="511.9,294.4 381.6,583.9 427.6,583.9 			"/>
			
				<linearGradient id="XMLID_6_" gradientUnits="userSpaceOnUse" x1="582.35" y1="569" x2="582.35" y2="281.9" gradientTransform="matrix(1 0 0 -1 0 560.6)">
				<stop  offset="0" style="stop-color:#EDEEEF;stop-opacity:0"/>
				<stop  offset="0.509" style="stop-color:#FFFFFF"/>
				<stop  offset="1" style="stop-color:#ECECED;stop-opacity:0"/>
			</linearGradient>
			<polygon id="XMLID_382_" class="st5" points="647,-8.4 601.3,-8.4 517.7,278.7 			"/>
		</g>
		<g id="XMLID_378_">
			
				<linearGradient id="XMLID_7_" gradientUnits="userSpaceOnUse" x1="382" y1="266.7" x2="382" y2="-23.3" gradientTransform="matrix(1 0 0 -1 0 560.6)">
				<stop  offset="0" style="stop-color:#EDEEEF;stop-opacity:0"/>
				<stop  offset="0.509" style="stop-color:#FFFFFF"/>
				<stop  offset="1" style="stop-color:#ECECED;stop-opacity:0"/>
			</linearGradient>
			<polygon id="XMLID_380_" class="st6" points="509.1,293.9 254.9,583.9 310.4,583.9 			"/>
			
				<linearGradient id="XMLID_8_" gradientUnits="userSpaceOnUse" x1="646.75" y1="569" x2="646.75" y2="281.4" gradientTransform="matrix(1 0 0 -1 0 560.6)">
				<stop  offset="0" style="stop-color:#EDEEEF;stop-opacity:0"/>
				<stop  offset="0.509" style="stop-color:#FFFFFF"/>
				<stop  offset="1" style="stop-color:#ECECED;stop-opacity:0"/>
			</linearGradient>
			<polygon id="XMLID_379_" class="st7" points="773,-8.4 717.6,-8.4 520.5,279.2 			"/>
		</g>
		<g id="XMLID_375_">
			
				<linearGradient id="XMLID_9_" gradientUnits="userSpaceOnUse" x1="308.2" y1="267.5" x2="308.2" y2="-23.3" gradientTransform="matrix(1 0 0 -1 0 560.6)">
				<stop  offset="0" style="stop-color:#EDEEEF;stop-opacity:0"/>
				<stop  offset="0.509" style="stop-color:#FFFFFF"/>
				<stop  offset="1" style="stop-color:#ECECED;stop-opacity:0"/>
			</linearGradient>
			<polygon id="XMLID_377_" class="st8" points="506.6,293.1 109.8,583.9 190.6,583.9 			"/>
			
				<linearGradient id="XMLID_10_" gradientUnits="userSpaceOnUse" x1="723.65" y1="569" x2="723.65" y2="280.5" gradientTransform="matrix(1 0 0 -1 0 560.6)">
				<stop  offset="0" style="stop-color:#EDEEEF;stop-opacity:0"/>
				<stop  offset="0.509" style="stop-color:#FFFFFF"/>
				<stop  offset="1" style="stop-color:#ECECED;stop-opacity:0"/>
			</linearGradient>
			<polygon id="XMLID_376_" class="st9" points="924.3,-8.4 851.6,-8.4 523,280.1 			"/>
		</g>
		<g id="XMLID_372_">
			
				<linearGradient id="XMLID_11_" gradientUnits="userSpaceOnUse" x1="251.15" y1="268.7" x2="251.15" y2="-17.9" gradientTransform="matrix(1 0 0 -1 0 560.6)">
				<stop  offset="0" style="stop-color:#EDEEEF;stop-opacity:0"/>
				<stop  offset="0.509" style="stop-color:#FFFFFF"/>
				<stop  offset="1" style="stop-color:#ECECED;stop-opacity:0"/>
			</linearGradient>
			<polygon id="XMLID_374_" class="st10" points="-2.1,534.4 -2.1,578.5 504.4,291.9 			"/>
			
				<linearGradient id="XMLID_12_" gradientUnits="userSpaceOnUse" x1="777.6" y1="562.8" x2="777.6" y2="279.4" gradientTransform="matrix(1 0 0 -1 0 560.6)">
				<stop  offset="0" style="stop-color:#EDEEEF;stop-opacity:0"/>
				<stop  offset="0.509" style="stop-color:#FFFFFF"/>
				<stop  offset="1" style="stop-color:#ECECED;stop-opacity:0"/>
			</linearGradient>
			<polygon id="XMLID_373_" class="st11" points="525.2,281.2 1030,39.6 1030,-2.2 			"/>
		</g>
		<g id="XMLID_368_">
			
				<linearGradient id="XMLID_13_" gradientUnits="userSpaceOnUse" x1="250.3" y1="270" x2="250.3" y2="86.7" gradientTransform="matrix(1 0 0 -1 0 560.6)">
				<stop  offset="0" style="stop-color:#EDEEEF;stop-opacity:0"/>
				<stop  offset="0.509" style="stop-color:#FFFFFF"/>
				<stop  offset="1" style="stop-color:#ECECED;stop-opacity:0"/>
			</linearGradient>
			<polygon id="XMLID_370_" class="st12" points="-2.1,439.6 -2.1,473.9 502.7,290.6 			"/>
			
				<linearGradient id="XMLID_14_" gradientUnits="userSpaceOnUse" x1="778.45" y1="460.9" x2="778.45" y2="278" gradientTransform="matrix(1 0 0 -1 0 560.6)">
				<stop  offset="0" style="stop-color:#EDEEEF;stop-opacity:0"/>
				<stop  offset="0.509" style="stop-color:#FFFFFF"/>
				<stop  offset="1" style="stop-color:#ECECED;stop-opacity:0"/>
			</linearGradient>
			<polygon id="XMLID_369_" class="st13" points="526.9,282.6 1030,134.6 1030,99.7 			"/>
		</g>
		<g id="XMLID_365_">
			
				<linearGradient id="XMLID_15_" gradientUnits="userSpaceOnUse" x1="249.7" y1="271.6" x2="249.7" y2="163.4" gradientTransform="matrix(1 0 0 -1 0 560.6)">
				<stop  offset="0" style="stop-color:#EDEEEF;stop-opacity:0"/>
				<stop  offset="0.509" style="stop-color:#FFFFFF"/>
				<stop  offset="1" style="stop-color:#ECECED;stop-opacity:0"/>
			</linearGradient>
			<polygon id="XMLID_367_" class="st14" points="-2.1,369.2 -2.1,397.2 501.5,289 			"/>
			
				<linearGradient id="XMLID_16_" gradientUnits="userSpaceOnUse" x1="779.05" y1="384.3" x2="779.05" y2="276.5" gradientTransform="matrix(1 0 0 -1 0 560.6)">
				<stop  offset="0" style="stop-color:#EDEEEF;stop-opacity:0"/>
				<stop  offset="0.509" style="stop-color:#FFFFFF"/>
				<stop  offset="1" style="stop-color:#ECECED;stop-opacity:0"/>
			</linearGradient>
			<polygon id="XMLID_366_" class="st15" points="528.1,284.1 1030,204.2 1030,176.3 			"/>
		</g>
		<g id="XMLID_362_">
			
				<linearGradient id="XMLID_17_" gradientUnits="userSpaceOnUse" x1="249.4" y1="273.2" x2="249.4" y2="230.1" gradientTransform="matrix(1 0 0 -1 0 560.6)">
				<stop  offset="0" style="stop-color:#EDEEEF;stop-opacity:0"/>
				<stop  offset="0.509" style="stop-color:#FFFFFF"/>
				<stop  offset="1" style="stop-color:#ECECED;stop-opacity:0"/>
			</linearGradient>
			<polygon id="XMLID_364_" class="st16" points="-2.1,304.9 -2.1,330.5 500.9,287.4 			"/>
			
				<linearGradient id="XMLID_19_" gradientUnits="userSpaceOnUse" x1="779.35" y1="317.8" x2="779.35" y2="274.8543" gradientTransform="matrix(1 0 0 -1 0 560.6)">
				<stop  offset="0" style="stop-color:#EDEEEF;stop-opacity:0"/>
				<stop  offset="0.509" style="stop-color:#FFFFFF"/>
				<stop  offset="1" style="stop-color:#ECECED;stop-opacity:0"/>
			</linearGradient>
			<polygon id="XMLID_363_" class="st17" points="528.7,285.7 1030,268.3 1030,242.8 			"/>
		</g>
		<g id="XMLID_359_">
			
				<linearGradient id="XMLID_20_" gradientUnits="userSpaceOnUse" x1="249.4" y1="318.3" x2="249.4" y2="274.9" gradientTransform="matrix(1 0 0 -1 0 560.6)">
				<stop  offset="0" style="stop-color:#EDEEEF;stop-opacity:0"/>
				<stop  offset="0.509" style="stop-color:#FFFFFF"/>
				<stop  offset="1" style="stop-color:#ECECED;stop-opacity:0"/>
			</linearGradient>
			<polygon id="XMLID_361_" class="st18" points="-2.1,242.3 -2.1,267.9 500.9,285.7 			"/>
			
				<linearGradient id="XMLID_21_" gradientUnits="userSpaceOnUse" x1="779.35" y1="273.2" x2="779.35" y2="229.9" gradientTransform="matrix(1 0 0 -1 0 560.6)">
				<stop  offset="0" style="stop-color:#EDEEEF;stop-opacity:0"/>
				<stop  offset="0.509" style="stop-color:#FFFFFF"/>
				<stop  offset="1" style="stop-color:#ECECED;stop-opacity:0"/>
			</linearGradient>
			<polygon id="XMLID_360_" class="st19" points="528.7,287.4 1030,330.7 1030,305.2 			"/>
		</g>
		<g id="XMLID_356_">
			
				<linearGradient id="XMLID_22_" gradientUnits="userSpaceOnUse" x1="249.7" y1="385" x2="249.7" y2="276.5" gradientTransform="matrix(1 0 0 -1 0 560.6)">
				<stop  offset="0" style="stop-color:#EDEEEF;stop-opacity:0"/>
				<stop  offset="0.509" style="stop-color:#FFFFFF"/>
				<stop  offset="1" style="stop-color:#ECECED;stop-opacity:0"/>
			</linearGradient>
			<polygon id="XMLID_358_" class="st20" points="-2.1,175.6 -2.1,203.6 501.5,284.1 			"/>
			
				<linearGradient id="XMLID_23_" gradientUnits="userSpaceOnUse" x1="779.05" y1="271.5" x2="779.05" y2="163.4" gradientTransform="matrix(1 0 0 -1 0 560.6)">
				<stop  offset="0" style="stop-color:#EDEEEF;stop-opacity:0"/>
				<stop  offset="0.509" style="stop-color:#FFFFFF"/>
				<stop  offset="1" style="stop-color:#ECECED;stop-opacity:0"/>
			</linearGradient>
			<polygon id="XMLID_357_" class="st21" points="528.1,289.1 1030,397.2 1030,369.3 			"/>
		</g>
		<g id="XMLID_353_">
			
				<linearGradient id="XMLID_24_" gradientUnits="userSpaceOnUse" x1="250.3" y1="467.5" x2="250.3" y2="278" gradientTransform="matrix(1 0 0 -1 0 560.6)">
				<stop  offset="0" style="stop-color:#EDEEEF;stop-opacity:0"/>
				<stop  offset="0.509" style="stop-color:#FFFFFF"/>
				<stop  offset="1" style="stop-color:#ECECED;stop-opacity:0"/>
			</linearGradient>
			<polygon id="XMLID_355_" class="st22" points="-2.1,93.1 -2.1,134.5 502.7,282.6 			"/>
			
				<linearGradient id="XMLID_25_" gradientUnits="userSpaceOnUse" x1="778.45" y1="270" x2="778.45" y2="82.5" gradientTransform="matrix(1 0 0 -1 0 560.6)">
				<stop  offset="0" style="stop-color:#EDEEEF;stop-opacity:0"/>
				<stop  offset="0.509" style="stop-color:#FFFFFF"/>
				<stop  offset="1" style="stop-color:#ECECED;stop-opacity:0"/>
			</linearGradient>
			<polygon id="XMLID_354_" class="st23" points="526.9,290.6 1030,478.1 1030,444.6 			"/>
		</g>
		<g id="XMLID_350_">
			
				<linearGradient id="XMLID_26_" gradientUnits="userSpaceOnUse" x1="251.15" y1="569" x2="251.15" y2="279.4" gradientTransform="matrix(1 0 0 -1 0 560.6)">
				<stop  offset="0" style="stop-color:#EDEEEF;stop-opacity:0"/>
				<stop  offset="0.509" style="stop-color:#FFFFFF"/>
				<stop  offset="1" style="stop-color:#ECECED;stop-opacity:0"/>
			</linearGradient>
			<polygon id="XMLID_352_" class="st24" points="-2.1,37.3 504.4,281.2 4.4,-8.4 -2.1,-8.4 			"/>
			
				<linearGradient id="XMLID_27_" gradientUnits="userSpaceOnUse" x1="777.6" y1="268.7" x2="777.6" y2="-15.9" gradientTransform="matrix(1 0 0 -1 0 560.6)">
				<stop  offset="0" style="stop-color:#EDEEEF;stop-opacity:0"/>
				<stop  offset="0.509" style="stop-color:#FFFFFF"/>
				<stop  offset="1" style="stop-color:#ECECED;stop-opacity:0"/>
			</linearGradient>
			<polygon id="XMLID_351_" class="st25" points="525.2,291.9 1030,576.5 1030,528.6 			"/>
		</g>
		<g id="XMLID_347_">
			
				<linearGradient id="XMLID_28_" gradientUnits="userSpaceOnUse" x1="307.6" y1="569" x2="307.6" y2="280.5" gradientTransform="matrix(1 0 0 -1 0 560.6)">
				<stop  offset="0" style="stop-color:#EDEEEF;stop-opacity:0"/>
				<stop  offset="0.509" style="stop-color:#FFFFFF"/>
				<stop  offset="1" style="stop-color:#ECECED;stop-opacity:0"/>
			</linearGradient>
			<polygon id="XMLID_349_" class="st26" points="174.9,-8.4 108.6,-8.4 506.6,280.1 			"/>
			
				<linearGradient id="XMLID_29_" gradientUnits="userSpaceOnUse" x1="726.55" y1="267.5" x2="726.55" y2="-23.3" gradientTransform="matrix(1 0 0 -1 0 560.6)">
				<stop  offset="0" style="stop-color:#EDEEEF;stop-opacity:0"/>
				<stop  offset="0.509" style="stop-color:#FFFFFF"/>
				<stop  offset="1" style="stop-color:#ECECED;stop-opacity:0"/>
			</linearGradient>
			<polygon id="XMLID_348_" class="st27" points="523,293.1 859.1,583.9 930.1,583.9 			"/>
		</g>
		<g id="XMLID_344_">
			
				<linearGradient id="XMLID_30_" gradientUnits="userSpaceOnUse" x1="382.95" y1="569" x2="382.95" y2="281.4" gradientTransform="matrix(1 0 0 -1 0 560.6)">
				<stop  offset="0" style="stop-color:#EDEEEF;stop-opacity:0"/>
				<stop  offset="0.509" style="stop-color:#FFFFFF"/>
				<stop  offset="1" style="stop-color:#ECECED;stop-opacity:0"/>
			</linearGradient>
			<polygon id="XMLID_346_" class="st28" points="312.7,-8.4 256.8,-8.4 509.1,279.2 			"/>
			
				<linearGradient id="XMLID_31_" gradientUnits="userSpaceOnUse" x1="647.75" y1="266.7" x2="647.75" y2="-23.3" gradientTransform="matrix(1 0 0 -1 0 560.6)">
				<stop  offset="0" style="stop-color:#EDEEEF;stop-opacity:0"/>
				<stop  offset="0.509" style="stop-color:#FFFFFF"/>
				<stop  offset="1" style="stop-color:#ECECED;stop-opacity:0"/>
			</linearGradient>
			<polygon id="XMLID_345_" class="st29" points="520.5,293.9 718.5,583.9 775,583.9 			"/>
		</g>
		<g id="XMLID_341_">
			
				<linearGradient id="XMLID_32_" gradientUnits="userSpaceOnUse" x1="447.6" y1="569" x2="447.6" y2="281.9" gradientTransform="matrix(1 0 0 -1 0 560.6)">
				<stop  offset="0" style="stop-color:#EDEEEF;stop-opacity:0"/>
				<stop  offset="0.509" style="stop-color:#FFFFFF"/>
				<stop  offset="1" style="stop-color:#ECECED;stop-opacity:0"/>
			</linearGradient>
			<polygon id="XMLID_343_" class="st30" points="428.9,-8.4 383.3,-8.4 511.9,278.7 			"/>
			
				<linearGradient id="XMLID_33_" gradientUnits="userSpaceOnUse" x1="582.5" y1="266.2" x2="582.5" y2="-23.3" gradientTransform="matrix(1 0 0 -1 0 560.6)">
				<stop  offset="0" style="stop-color:#EDEEEF;stop-opacity:0"/>
				<stop  offset="0.509" style="stop-color:#FFFFFF"/>
				<stop  offset="1" style="stop-color:#ECECED;stop-opacity:0"/>
			</linearGradient>
			<polygon id="XMLID_342_" class="st31" points="517.7,294.4 601.3,583.9 647.3,583.9 			"/>
		</g>
	</g>
</g>
<g>
	<g>
		<circle class="st32" cx="440.9" cy="521" r="15.1"/>
		<circle class="st33" cx="440.9" cy="521" r="11.1"/>
		<polyline class="st34" points="434.8,521 440.9,529.9 446.1,521 		"/>
		<line class="st34" x1="440.9" y1="529.9" x2="440.9" y2="547.3"/>
	</g>
	<g class="st35">
		<path class="st36" d="M440.9,505.9v42.7c0.7,0,1.3-0.6,1.3-1.3v-11.4c7.7-0.7,13.8-7.1,13.8-15C456,512.6,449.2,505.9,440.9,505.9
			z"/>
	</g>
</g>
<ellipse class="st37" cx="400.7" cy="515.8" rx="301.1" ry="49.1"/>
<g>
	<polygon class="st33" points="237.8,458 246,471 254.3,484 241.1,485.6 227.8,487.2 232.8,472.6 	"/>
	<polygon class="st38" points="237.7,458.2 240.9,485.6 254.5,484 	"/>
	<polygon class="st39" points="234.7,467 236.9,470.2 238.8,466.8 241.8,469.3 242.8,466 237.8,458 	"/>
</g>
<g>
	<polygon class="st33" points="314.3,460.6 318.9,469.7 323.5,478.9 314.6,479 305.8,479.2 310,469.9 	"/>
	<polygon class="st38" points="314.2,460.7 314.5,479 323.6,478.9 	"/>
	<polygon class="st39" points="311.7,466.3 312.9,468.6 314.4,466.5 316.2,468.3 317.1,466.2 314.3,460.6 	"/>
</g>
<g>
	<polygon class="st33" points="154.4,477.8 160.8,485.9 167.1,493.9 158.5,495.8 149.8,497.7 152.1,487.8 	"/>
	<polygon class="st38" points="154.4,477.9 158.4,495.8 167.2,493.9 	"/>
	<polygon class="st39" points="153,483.9 154.6,485.9 155.7,483.6 157.8,485 158.3,482.8 154.4,477.8 	"/>
</g>
<g>
	<polygon class="st33" points="579.3,467.9 582.8,477 586.3,486 577.9,485.3 569.5,484.6 574.4,476.3 	"/>
	<polygon class="st38" points="579.2,468 577.8,485.3 586.4,486 	"/>
	<polygon class="st39" points="576.3,473.1 577.2,475.3 578.9,473.5 580.4,475.4 581.4,473.5 579.3,467.9 	"/>
</g>
<path class="st40" d="M673.2,502.1c0,13.9-247,41.8-360.6,41.8S111.2,524,111.2,510.1s153.2-34.8,266.8-34.8
	S673.2,488.3,673.2,502.1z"/>
<g>
	<g>
		<circle class="st37" cx="175.2" cy="518.1" r="20.4"/>
		<circle class="st37" cx="189.5" cy="504.9" r="10.4"/>
		<circle class="st37" cx="162.8" cy="503.5" r="6.5"/>
		<circle class="st37" cx="154.5" cy="510.9" r="5.5"/>
		<circle class="st37" cx="195.8" cy="510.9" r="5.5"/>
		<circle class="st37" cx="175.2" cy="499.1" r="7.7"/>
	</g>
	<g>
		<g id="XMLID_472_">
			
				<linearGradient id="XMLID_34_" gradientUnits="userSpaceOnUse" x1="496.8299" y1="161.7" x2="513.4299" y2="161.7" gradientTransform="matrix(1 0 0 -1 0 560.6)">
				<stop  offset="0" style="stop-color:#747475"/>
				<stop  offset="0.3158" style="stop-color:#7C7C7D"/>
				<stop  offset="0.8112" style="stop-color:#939393"/>
				<stop  offset="1" style="stop-color:#9D9D9D"/>
			</linearGradient>
			<polygon id="XMLID_488_" class="st41" points="511.4,552.4 513.4,245.4 496.8,245.4 497.1,552.4 			"/>
			
				<linearGradient id="XMLID_35_" gradientUnits="userSpaceOnUse" x1="511.7" y1="38.6" x2="563.9576" y2="38.6" gradientTransform="matrix(1 0 0 -1 0 560.6)">
				<stop  offset="1.076729e-007" style="stop-color:#6E6E6F"/>
				<stop  offset="0.2864" style="stop-color:#767677"/>
				<stop  offset="0.7356" style="stop-color:#8D8D8D"/>
				<stop  offset="1" style="stop-color:#9D9D9D"/>
			</linearGradient>
			<polygon id="XMLID_489_" class="st42" points="563.2,552.4 511.7,491.6 512,552.4 			"/>
			
				<linearGradient id="XMLID_36_" gradientUnits="userSpaceOnUse" x1="700.3912" y1="34.45" x2="738.0969" y2="34.45" gradientTransform="matrix(-1 0 0 -1 1196.2913 560.6)">
				<stop  offset="1.076729e-007" style="stop-color:#6E6E6F"/>
				<stop  offset="0.2864" style="stop-color:#767677"/>
				<stop  offset="0.7356" style="stop-color:#8D8D8D"/>
				<stop  offset="1" style="stop-color:#9D9D9D"/>
			</linearGradient>
			<polygon id="XMLID_491_" class="st43" points="495.4,552.4 495.9,499.9 458.6,552.4 			"/>
			<path id="XMLID_490_" class="st44" d="M477.8,262.3l-13.7,171.1c-3.1,38.6-19.1,75.2-46,103.9v15.1c11.1,0.1,22.2,0.1,33.3,0.1
				c21.1-17.1,43.4-48.6,43.4-93.1l3.6-220.7L477.8,262.3z"/>
			<path id="XMLID_1163_" class="st44" d="M581.7,523.7c-13.3-11.4-42.2-38.5-43-59.4l-6.4-210.9l-20.4-15.7v0.1l-1.6,228
				c0,0-1.3,19.1,16.6,42.5c7.7,10.1,22.3,22.2,33.3,29l21.4,12.1v-25.7H581.7z"/>
			<path id="XMLID_1171_" class="st45" d="M560.3,537.3c-11-6.8-25.6-18.9-33.3-29c-17.9-23.4-16.6-42.5-16.6-42.5l1.6-228l-0.1-0.4
				l-7,7.1l-6.8-5.9l-3.6,220.7c0,44.9-21.6,76-43.3,93.1c1.6,0,3.2,0,4.8,0h7.4c11.9-11.6,24.4-29,26.8-42.1l-1.3,42.1h9.7
				l1.1-88.9l0.2,0.2c1.8,1.2,4.3,1.1,5.9-0.3v89h8.6l-0.9-54.1c0,0,9.9,29.8,47.5,54.1h20.7c0,0,0,0,0.1,0v-3.1L560.3,537.3z
				 M505.2,457.6L505.2,457.6c-1.4,0.7-2.9,0.6-4.2,0l1.1-74.4l-0.1-29.9l0.7,0.8c0.7,0.8,2,0.8,2.7-0.1l0.7-1L505.2,457.6z
				 M506.5,348.1L506.5,348.1c-1.4,0.7-2.9,0.6-4.2,0l1.1-74.4c0.9,1.1,2.6,1.1,3.5,0l0.3-0.3L506.5,348.1z M507.7,269.4
				L507.7,269.4c-1.4,0.7-2.9,0.6-4.2,0v-21.2l2.1,2l2-2v21.2H507.7z"/>
			<line id="XMLID_482_" class="st46" x1="486.1" y1="254.5" x2="486.1" y2="261.1"/>
			<line id="XMLID_481_" class="st46" x1="486.1" y1="277.1" x2="486.1" y2="283.7"/>
			<line id="XMLID_480_" class="st46" x1="496.7" y1="259.1" x2="490.7" y2="264.7"/>
			<line id="XMLID_479_" class="st46" x1="483.3" y1="270.2" x2="477.3" y2="275.9"/>
			<line id="XMLID_478_" class="st46" x1="521.3" y1="247.6" x2="521.6" y2="256.2"/>
			<line id="XMLID_477_" class="st46" x1="521.4" y1="265.9" x2="521.5" y2="274.4"/>
			<line id="XMLID_476_" class="st46" x1="513.1" y1="255.4" x2="517.7" y2="258.3"/>
			<line id="XMLID_475_" class="st46" x1="524.8" y1="262.7" x2="531.5" y2="266.9"/>
			<path id="XMLID_474_" class="st47" d="M528.8,252.3l-7.5,7.5c0,0,0.1,0.1,0,0l-5.7-3"/>
			<polyline id="XMLID_473_" class="st47" points="491.2,256 485.4,268.6 480,273.4 			"/>
		</g>
		<g>
			<g>
				<circle class="st48" cx="496" cy="494.3" r="10.9"/>
				<circle class="st49" cx="496" cy="494.3" r="8"/>
				<circle class="st48" cx="503" cy="483" r="10.9"/>
				<circle class="st49" cx="503" cy="483" r="8"/>
				<circle class="st48" cx="510.4" cy="494.3" r="10.9"/>
				<circle class="st49" cx="510.4" cy="494.3" r="8"/>
				<polyline class="st34" points="495.6,501.7 503,512.6 509.3,501.7 				"/>
				<line class="st34" x1="503" y1="512.6" x2="503" y2="533.7"/>
			</g>
			<g class="st35">
				<path class="st50" d="M506,504.2c-1-0.5-2-1.1-2.8-1.8v6.6L506,504.2z"/>
				<path class="st36" d="M513.9,484c0-0.3,0-0.6,0-1c0-5.9-4.8-10.8-10.7-10.8v30.2c0.8,0.7,1.8,1.3,2.8,1.8l-2.8,4.8v26.3
					c0.8-0.1,1.4-0.8,1.4-1.6V513l4.6-8c0.4,0,0.8,0.1,1.2,0.1c6,0,10.9-4.9,10.9-10.9C521.3,489.5,518.2,485.4,513.9,484z"/>
			</g>
		</g>
		<g>
			<circle class="st37" cx="835.1" cy="449.2" r="19.8"/>
			<circle class="st37" cx="827.6" cy="474.9" r="19.8"/>
			<circle class="st37" cx="849" cy="436.4" r="10.1"/>
			<circle class="st37" cx="823.1" cy="435" r="6.3"/>
			<circle class="st37" cx="815" cy="442.2" r="5.3"/>
			<circle class="st37" cx="855.1" cy="442.2" r="5.3"/>
			<circle class="st37" cx="835.1" cy="430.8" r="7.5"/>
		</g>
		<path class="st51" d="M862.7,548c-7.4,0.1-35.4-0.8-50.1-1.5c-14.7-0.7-231.8-10.9-246.5-11.6c-14.7-0.7-186,3.3-203.2,3.3
			s-144.3,10-168.7,10c-22.4,0-171.2,15.5-194.4,17.9v28.2H1026v-46.7C1002.7,547.6,869.5,547.9,862.7,548z"/>
		<rect x="-0.1" y="569.4" class="st52" width="1026.1" height="8.6"/>
		<path class="st52" d="M387.2,543.9c-0.8,0-116.6,2.5-117.3,2.5l-131,8.4c-0.9,0.1-1.8,0.1-2.8,0l-136.2-9.1v11.4H1026v-13.2
			L387.2,543.9L387.2,543.9z"/>
		<polygon class="st53" points="-0.1,529.2 -0.1,566.1 194.2,548.2 195.7,535.3 		"/>
		<polygon class="st54" points="566,518.9 836,478.4 843.7,548 566,534.9 		"/>
		<polygon class="st53" points="1026,488 836,478.4 843,548 1026,547.6 		"/>
		<g>
			<path class="st32" d="M833.8,462L833.8,462c-1.4-9.3-11.8-15.5-23.2-13.7l-204,31.5c-11.3,1.8-19.4,10.7-17.9,20.1l0,0
				c0.2,1.1,0.5,2.1,0.9,3.1l244.3-37.7C834,464.2,833.9,463.1,833.8,462z"/>
			<path class="st33" d="M589.5,503c3,7.6,12.3,12.2,22.3,10.6l204-31.5c10-1.5,17.5-8.8,18.1-16.9L589.5,503z"/>
		</g>
		<g>
			<path class="st37" d="M5.7,481.4c-1.7-1.7-3.7-2.9-5.8-3.7v30.8c2.1-0.8,4.1-2,5.8-3.7C12.1,498.3,12.1,487.8,5.7,481.4z"/>
			<path class="st37" d="M5.6,474c-2.2,0-4.2,0.9-5.7,2.3v12.3c1.5,1.4,3.5,2.3,5.7,2.3c4.6,0,8.4-3.8,8.4-8.4S10.2,474,5.6,474z"/>
			<circle class="st37" cx="10.6" cy="487.3" r="4.4"/>
		</g>
		<g>
			<circle class="st33" cx="596.6" cy="490.5" r="3.2"/>
			<circle class="st33" cx="615" cy="485.3" r="2.4"/>
			<circle class="st33" cx="638.3" cy="485.1" r="3.3"/>
			<circle class="st33" cx="663.1" cy="484.9" r="3.1"/>
			<circle class="st33" cx="700.5" cy="478.5" r="2.5"/>
			<circle class="st33" cx="719.8" cy="470" r="3.1"/>
			<circle class="st33" cx="768.5" cy="465.9" r="4.8"/>
			<circle class="st33" cx="813.5" cy="455.7" r="3.1"/>
			<circle class="st33" cx="830.2" cy="461.8" r="2.4"/>
		</g>
		<g>
			<path class="st32" d="M181.5,501.7l-181.6-5.3v20.3l201.4,5.8c0.3-1,0.4-2.1,0.5-3.2C202,510,193,502,181.5,501.7z"/>
			<path class="st33" d="M-0.1,516.8v13.9l180.6,5.2c10.1,0.3,18.8-5.5,20.8-13.3L-0.1,516.8z"/>
		</g>
		<g>
			<circle class="st33" cx="5.4" cy="506.7" r="3.3"/>
			<circle class="st33" cx="29.8" cy="511" r="3.1"/>
			<circle class="st33" cx="67.7" cy="511.6" r="2.5"/>
			<circle class="st33" cx="88.3" cy="506.7" r="3.1"/>
			<circle class="st33" cx="136.9" cy="511.4" r="4.8"/>
			<circle class="st33" cx="183" cy="509.6" r="3.1"/>
			<circle class="st33" cx="198.3" cy="518.6" r="2.4"/>
		</g>
		<g>
			<g>
				<path class="st32" d="M1026,456.3l-171.7-9.8c-11.5-0.7-21.2,6.5-21.7,15.9c-0.1,1.1,0,2.2,0.2,3.2l193.2,11V456.3z"/>
				<path class="st33" d="M1026,476.7l-193.2-11c1.4,8,9.5,14.5,19.6,15.1l173.6,9.9V476.7z"/>
			</g>
			<g>
				<circle class="st33" cx="842.3" cy="455" r="3.2"/>
				<circle class="st33" cx="861.4" cy="453.7" r="2.4"/>
				<circle class="st33" cx="884.2" cy="458.3" r="3.3"/>
				<circle class="st33" cx="908.5" cy="463.3" r="3.1"/>
				<circle class="st33" cx="946.4" cy="464.9" r="2.5"/>
				<circle class="st33" cx="967.1" cy="460.6" r="3.1"/>
				<circle class="st33" cx="1015.5" cy="466.8" r="4.8"/>
			</g>
		</g>
	</g>
</g>
<g class="st55">
	<path class="st56" d="M114.3,123.1c2.7-3.2,4.3-7.1,4.3-11.3c0-10.5-9.8-19-21.9-19c-8.5,0-15.8,4.2-19.4,10.3
		c-4-1.4-8.6-2.2-13.4-2.2c-16.2,0-29.3,8.8-29.3,19.6s13.1,19.6,29.3,19.6c4.9,0,9.5-0.8,13.5-2.2c2.1,7,11.4,12.3,22.6,12.3
		c12.7,0,23.1-6.8,23.1-15.2C123.1,130.1,119.6,125.8,114.3,123.1z"/>
	<path class="st57" d="M107.9,122.8c2.2-2.6,3.5-5.8,3.5-9.3c0-8.6-8-15.6-17.9-15.6c-6.9,0-13,3.4-15.9,8.5c-3.3-1.1-7-1.8-11-1.8
		c-13.2,0-24,7.2-24,16.1s10.7,16.1,24,16.1c4,0,7.8-0.7,11.1-1.8c1.7,5.7,9.4,10,18.5,10c10.4,0,18.9-5.6,18.9-12.4
		C115.1,128.6,112.3,125,107.9,122.8z"/>
</g>
<g class="st58">
	<path class="st59" d="M956.2,273.7c-3.3-4.4-20.4-4.5-24-0.2c1.8,0.9,3.7,1.4,5.5,1.5C943.7,275.4,950.1,275.2,956.2,273.7z"/>
	<g>
		<polygon class="st59" points="933.3,274.4 931.8,274.4 938.8,260.3 940.4,260.3 		"/>
		<polygon class="st59" points="956.2,274.1 954.6,274.1 948.7,260.3 950.2,260.3 		"/>
		<path class="st57" d="M967.3,232.9c0,15.4-15.2,31.6-23.4,31.6s-23-16.2-23-31.6s10.4-22.3,23.2-22.3
			C956.9,210.6,967.3,217.5,967.3,232.9z"/>
		<g>
			<g>
				<defs>
					<path id="SVGID_1_" d="M967.3,232.9c0,15.4-15.2,31.6-23.4,31.6s-23-16.2-23-31.6s10.4-22.3,23.2-22.3
						C956.9,210.6,967.3,217.5,967.3,232.9z"/>
				</defs>
				<clipPath id="SVGID_2_">
					<use xlink:href="#SVGID_1_"  style="overflow:visible;"/>
				</clipPath>
				<path class="st60" d="M943.9,265.9c-0.1-0.2-0.1-0.5-0.2-0.9c-0.1-0.3-0.2-0.7-0.3-1.1c-0.2-0.8-0.5-1.9-0.9-3
					c-0.3-1.2-0.7-2.4-1.1-3.8c-0.1-0.3-0.2-0.7-0.3-1.1s-0.2-0.7-0.3-1.1s-0.2-0.7-0.3-1.1s-0.2-0.8-0.3-1.2
					c-0.1-0.4-0.2-0.8-0.3-1.2c-0.1-0.4-0.2-0.8-0.3-1.2c-0.2-0.8-0.4-1.6-0.6-2.5c-0.1-0.4-0.2-0.8-0.3-1.3
					c-0.1-0.4-0.2-0.9-0.3-1.3s-0.2-0.9-0.2-1.3c-0.1-0.4-0.2-0.9-0.2-1.3c-0.1-0.4-0.2-0.9-0.2-1.3c-0.1-0.4-0.1-0.9-0.2-1.3
					c-0.1-0.4-0.1-0.9-0.1-1.3c0-0.2-0.1-0.4-0.1-0.7v-0.7c-0.1-0.9-0.1-1.8-0.2-2.7c0-0.4,0-0.9,0-1.3c0-0.4,0-0.9,0-1.3
					c0-0.2,0-0.4,0-0.7c0-0.2,0-0.4,0-0.7c0-0.2,0-0.4,0-0.7c0-0.2,0-0.4,0-0.6c0-0.4,0.1-0.9,0.1-1.3c0-0.4,0.1-0.8,0.1-1.3
					c0.2-1.7,0.4-3.3,0.7-4.9c0.3-1.6,0.6-3,0.9-4.4c0.2-0.7,0.3-1.4,0.5-2s0.3-1.3,0.5-1.8c0.3-1.2,0.6-2.2,0.8-3
					c0.1-0.4,0.2-0.8,0.3-1.1s0.2-0.6,0.2-0.9c0.1-0.5,0.2-0.7,0.2-0.7s-0.2,0.2-0.6,0.5c-0.2,0.2-0.4,0.3-0.7,0.6
					c-0.3,0.2-0.6,0.5-0.9,0.8c-0.3,0.3-0.7,0.7-1.1,1.1c-0.4,0.4-0.8,0.8-1.2,1.3c-0.2,0.2-0.4,0.5-0.6,0.8
					c-0.2,0.3-0.4,0.5-0.6,0.8c-0.2,0.3-0.4,0.6-0.6,0.9c-0.2,0.3-0.4,0.6-0.6,1c-0.9,1.3-1.7,2.8-2.5,4.4c-0.8,1.6-1.4,3.5-2,5.4
					c-0.5,1.9-0.9,4-1.1,6.1c-0.1,1-0.1,2.1-0.2,3.2c0,0.5,0,1.1,0,1.6v0.4v0.4l0.1,0.8l0.1,0.8c0,0.3,0.1,0.5,0.1,0.8
					c0.1,0.5,0.1,1.1,0.2,1.6c0.2,1,0.4,2.1,0.6,3.1c0.1,0.5,0.2,1,0.4,1.5s0.3,1,0.5,1.5s0.3,1,0.5,1.4c0.2,0.5,0.3,0.9,0.5,1.4
					c0.2,0.4,0.4,0.9,0.6,1.3c0.2,0.4,0.4,0.9,0.6,1.3c0.2,0.4,0.4,0.8,0.6,1.2c0.2,0.4,0.4,0.8,0.7,1.2c0.2,0.4,0.4,0.8,0.7,1.1
					c0.2,0.4,0.5,0.7,0.7,1.1c0.2,0.3,0.5,0.7,0.7,1s0.5,0.6,0.7,1c0.9,1.2,1.8,2.3,2.7,3.3c0.2,0.2,0.4,0.5,0.6,0.7
					c0.2,0.2,0.4,0.4,0.6,0.6c0.4,0.4,0.7,0.7,1.1,1c0.3,0.3,0.6,0.6,0.9,0.8c0.3,0.2,0.5,0.4,0.7,0.6c0.4,0.3,0.6,0.5,0.6,0.5
					S944,266.3,943.9,265.9z"/>
			</g>
			<g>
				<defs>
					<path id="SVGID_3_" d="M967.3,232.9c0,15.4-15.2,31.6-23.4,31.6s-23-16.2-23-31.6s10.4-22.3,23.2-22.3
						C956.9,210.6,967.3,217.5,967.3,232.9z"/>
				</defs>
				<clipPath id="SVGID_4_">
					<use xlink:href="#SVGID_3_"  style="overflow:visible;"/>
				</clipPath>
				<path class="st61" d="M944.5,265.5c0.1-0.2,0.1-0.5,0.2-0.8c0.1-0.3,0.2-0.7,0.3-1.1c0.2-0.8,0.5-1.9,0.9-3
					c0.3-1.2,0.7-2.4,1.1-3.8c0.1-0.3,0.2-0.7,0.3-1.1s0.2-0.7,0.3-1.1s0.2-0.7,0.3-1.1s0.2-0.8,0.3-1.2c0.1-0.4,0.2-0.8,0.3-1.2
					c0.1-0.4,0.2-0.8,0.3-1.2c0.2-0.8,0.4-1.6,0.6-2.5c0.1-0.4,0.2-0.8,0.3-1.3c0.1-0.4,0.2-0.8,0.3-1.3c0.1-0.4,0.2-0.9,0.2-1.3
					c0.1-0.4,0.2-0.9,0.2-1.3c0.1-0.4,0.2-0.9,0.2-1.3c0.1-0.4,0.1-0.9,0.2-1.3c0.1-0.4,0.1-0.9,0.1-1.3c0-0.2,0.1-0.4,0.1-0.7v-0.7
					c0.1-0.9,0.1-1.8,0.2-2.6c0-0.4,0-0.9,0-1.3c0-0.4,0-0.9,0-1.3c0-0.2,0-0.4,0-0.7c0-0.2,0-0.4,0-0.7c0-0.2,0-0.4,0-0.6
					c0-0.2,0-0.4,0-0.6c0-0.4-0.1-0.9-0.1-1.3c0-0.4-0.1-0.8-0.1-1.3c-0.2-1.7-0.4-3.3-0.7-4.9c-0.3-1.6-0.6-3-0.9-4.4
					c-0.2-0.7-0.3-1.4-0.5-2s-0.3-1.2-0.5-1.8c-0.3-1.1-0.6-2.2-0.8-3c-0.1-0.4-0.2-0.8-0.3-1.1s-0.2-0.6-0.2-0.8
					c-0.1-0.5-0.2-0.7-0.2-0.7s0.2,0.2,0.6,0.5c0.2,0.2,0.4,0.3,0.7,0.6c0.3,0.2,0.6,0.5,0.9,0.8c0.3,0.3,0.7,0.7,1.1,1.1
					c0.4,0.4,0.8,0.8,1.2,1.3c0.2,0.2,0.4,0.5,0.6,0.8c0.2,0.3,0.4,0.5,0.6,0.8c0.2,0.3,0.4,0.6,0.6,0.9c0.2,0.3,0.4,0.6,0.7,0.9
					c0.9,1.3,1.7,2.8,2.5,4.4c0.8,1.6,1.4,3.4,2,5.4c0.5,1.9,0.9,4,1.1,6c0.1,1,0.1,2.1,0.2,3.2c0,0.5,0,1.1,0,1.6v0.4v0.4l-0.1,0.8
					l-0.1,0.8c0,0.3-0.1,0.5-0.1,0.8c-0.1,0.5-0.1,1.1-0.2,1.6c-0.2,1-0.4,2.1-0.6,3.1c-0.1,0.5-0.2,1-0.4,1.5s-0.3,1-0.5,1.5
					s-0.3,0.9-0.5,1.4s-0.3,0.9-0.5,1.4s-0.4,0.9-0.6,1.3c-0.2,0.4-0.4,0.9-0.6,1.3c-0.2,0.4-0.4,0.8-0.6,1.2
					c-0.2,0.4-0.4,0.8-0.7,1.2c-0.2,0.4-0.4,0.8-0.7,1.1c-0.2,0.4-0.5,0.7-0.7,1.1c-0.2,0.3-0.5,0.7-0.7,1s-0.5,0.6-0.7,1
					c-0.9,1.2-1.9,2.3-2.7,3.2c-0.2,0.2-0.4,0.5-0.6,0.7c-0.2,0.2-0.4,0.4-0.6,0.6c-0.4,0.4-0.7,0.7-1.1,1c-0.3,0.3-0.6,0.6-0.9,0.8
					c-0.3,0.2-0.5,0.4-0.7,0.6c-0.4,0.3-0.6,0.5-0.6,0.5S944.4,266,944.5,265.5z"/>
			</g>
		</g>
	</g>
	<path class="st56" d="M937.7,275c-1.9-0.1-3.8-0.6-5.5-1.5c-0.4,0.5-0.7,1.1-0.7,1.7c0,6.6,1.2,12,12.6,12c11.4,0,12.6-5.4,12.6-12
		c0-0.6-0.2-1.1-0.6-1.6C950.1,275.2,943.7,275.4,937.7,275z"/>
</g>
<g class="st58">
	<path class="st59" d="M457.9,382.5c-1.7-2.3-10.6-2.3-12.5-0.1c0.9,0.4,1.9,0.7,2.9,0.8C451.4,383.4,454.8,383.3,457.9,382.5z"/>
	<g>
		<polygon class="st59" points="446,382.8 445.2,382.8 448.9,375.5 449.7,375.5 		"/>
		<polygon class="st59" points="457.9,382.7 457.1,382.7 454,375.5 454.8,375.5 		"/>
		<path class="st57" d="M463.7,361.3c0,8-7.9,16.4-12.2,16.4c-4.3,0-12-8.4-12-16.4s5.4-11.6,12.1-11.6
			C458.3,349.7,463.7,353.2,463.7,361.3z"/>
		<g>
			<g>
				<defs>
					<path id="SVGID_5_" d="M463.7,361.3c0,8-7.9,16.4-12.2,16.4c-4.3,0-12-8.4-12-16.4s5.4-11.6,12.1-11.6
						C458.3,349.7,463.7,353.2,463.7,361.3z"/>
				</defs>
				<clipPath id="SVGID_6_">
					<use xlink:href="#SVGID_5_"  style="overflow:visible;"/>
				</clipPath>
				<path class="st62" d="M451.5,378.4c0-0.1-0.1-0.3-0.1-0.4c0-0.2-0.1-0.4-0.2-0.6c-0.1-0.4-0.3-1-0.5-1.6s-0.4-1.3-0.6-2
					c-0.1-0.2-0.1-0.4-0.2-0.5c-0.1-0.2-0.1-0.4-0.2-0.6s-0.1-0.4-0.2-0.6s-0.1-0.4-0.2-0.6s-0.1-0.4-0.2-0.6c0-0.2-0.1-0.4-0.2-0.6
					c-0.1-0.4-0.2-0.9-0.3-1.3c-0.1-0.2-0.1-0.4-0.1-0.7c0-0.2-0.1-0.4-0.1-0.7c0-0.2-0.1-0.4-0.1-0.7c0-0.2-0.1-0.5-0.1-0.7
					s-0.1-0.5-0.1-0.7s-0.1-0.5-0.1-0.7s0-0.5-0.1-0.7c0-0.1,0-0.2,0-0.3v-0.3c0-0.5-0.1-0.9-0.1-1.4c0-0.2,0-0.5,0-0.7s0-0.5,0-0.7
					c0-0.1,0-0.2,0-0.3c0-0.1,0-0.2,0-0.3c0-0.1,0-0.2,0-0.3c0-0.1,0-0.2,0-0.3c0-0.2,0-0.4,0-0.7c0-0.2,0-0.4,0.1-0.7
					c0.1-0.9,0.2-1.7,0.3-2.5c0.1-0.8,0.3-1.6,0.5-2.3c0.1-0.4,0.2-0.7,0.3-1c0.1-0.3,0.2-0.7,0.2-0.9c0.2-0.6,0.3-1.1,0.4-1.6
					c0.1-0.2,0.1-0.4,0.2-0.6s0.1-0.3,0.1-0.4c0.1-0.2,0.1-0.4,0.1-0.4s-0.1,0.1-0.3,0.2c-0.1,0.1-0.2,0.2-0.4,0.3
					c-0.1,0.1-0.3,0.3-0.5,0.4c-0.2,0.2-0.4,0.4-0.5,0.6c-0.2,0.2-0.4,0.4-0.6,0.7c-0.1,0.1-0.2,0.3-0.3,0.4
					c-0.1,0.1-0.2,0.3-0.3,0.4c-0.1,0.1-0.2,0.3-0.3,0.5c-0.1,0.2-0.2,0.3-0.3,0.5c-0.4,0.7-0.9,1.5-1.3,2.3c-0.4,0.9-0.7,1.8-1,2.8
					s-0.5,2.1-0.6,3.2c-0.1,0.5-0.1,1.1-0.1,1.7c0,0.3,0,0.6,0,0.8v0.2v0.2v0.4v0.4c0,0.1,0,0.3,0.1,0.4c0,0.3,0.1,0.5,0.1,0.8
					c0.1,0.5,0.2,1.1,0.3,1.6c0.1,0.3,0.1,0.5,0.2,0.8s0.2,0.5,0.2,0.8c0.1,0.3,0.2,0.5,0.3,0.7c0.1,0.2,0.2,0.5,0.3,0.7
					c0.1,0.2,0.2,0.5,0.3,0.7c0.1,0.2,0.2,0.5,0.3,0.7c0.1,0.2,0.2,0.4,0.3,0.6c0.1,0.2,0.2,0.4,0.3,0.6c0.1,0.2,0.2,0.4,0.3,0.6
					c0.1,0.2,0.2,0.4,0.4,0.6c0.1,0.2,0.2,0.4,0.4,0.5c0.1,0.2,0.2,0.3,0.4,0.5c0.5,0.7,1,1.2,1.4,1.7c0.1,0.1,0.2,0.2,0.3,0.3
					c0.1,0.1,0.2,0.2,0.3,0.3c0.2,0.2,0.4,0.4,0.6,0.5c0.2,0.2,0.3,0.3,0.5,0.4c0.1,0.1,0.3,0.2,0.4,0.3c0.2,0.2,0.3,0.2,0.3,0.2
					S451.6,378.7,451.5,378.4z"/>
			</g>
			<g>
				<defs>
					<path id="SVGID_7_" d="M463.7,361.3c0,8-7.9,16.4-12.2,16.4c-4.3,0-12-8.4-12-16.4s5.4-11.6,12.1-11.6
						C458.3,349.7,463.7,353.2,463.7,361.3z"/>
				</defs>
				<clipPath id="SVGID_8_">
					<use xlink:href="#SVGID_7_"  style="overflow:visible;"/>
				</clipPath>
				<path class="st63" d="M451.9,378.2c0-0.1,0.1-0.3,0.1-0.4c0-0.2,0.1-0.4,0.2-0.6c0.1-0.4,0.3-1,0.5-1.6s0.4-1.3,0.6-2
					c0.1-0.2,0.1-0.4,0.2-0.5c0.1-0.2,0.1-0.4,0.2-0.6s0.1-0.4,0.2-0.6c0-0.2,0.1-0.4,0.2-0.6s0.1-0.4,0.2-0.6s0.1-0.4,0.2-0.6
					c0.1-0.4,0.2-0.9,0.3-1.3c0.1-0.2,0.1-0.4,0.1-0.7c0-0.2,0.1-0.4,0.1-0.7c0-0.2,0.1-0.4,0.1-0.7c0.1-0.2,0.1-0.5,0.1-0.7
					s0.1-0.5,0.1-0.7s0.1-0.5,0.1-0.7s0-0.5,0.1-0.7c0-0.1,0-0.2,0-0.3v-0.3c0-0.5,0.1-0.9,0.1-1.4c0-0.2,0-0.5,0-0.7s0-0.5,0-0.7
					c0-0.1,0-0.2,0-0.3c0-0.1,0-0.2,0-0.3c0-0.1,0-0.2,0-0.3c0-0.1,0-0.2,0-0.3c0-0.2,0-0.4,0-0.7c0-0.2,0-0.4-0.1-0.7
					c-0.1-0.9-0.2-1.7-0.3-2.5c-0.1-0.8-0.3-1.6-0.5-2.3c-0.1-0.4-0.2-0.7-0.3-1c-0.1-0.3-0.2-0.6-0.2-0.9c-0.2-0.6-0.3-1.1-0.4-1.6
					c-0.1-0.2-0.1-0.4-0.2-0.6s-0.1-0.3-0.1-0.4c-0.1-0.2-0.1-0.4-0.1-0.4s0.1,0.1,0.3,0.2c0.1,0.1,0.2,0.2,0.4,0.3
					c0.1,0.1,0.3,0.3,0.5,0.4c0.2,0.2,0.4,0.4,0.6,0.6s0.4,0.4,0.6,0.7c0.1,0.1,0.2,0.3,0.3,0.4c0.1,0.1,0.2,0.3,0.3,0.4
					c0.1,0.1,0.2,0.3,0.3,0.5c0.1,0.2,0.2,0.3,0.3,0.5c0.5,0.7,0.9,1.5,1.3,2.3c0.4,0.9,0.7,1.8,1,2.8s0.5,2.1,0.6,3.1
					c0.1,0.5,0.1,1.1,0.1,1.6c0,0.3,0,0.6,0,0.8v0.2v0.2v0.4v0.4c0,0.1,0,0.3-0.1,0.4c0,0.3-0.1,0.5-0.1,0.8
					c-0.1,0.5-0.2,1.1-0.3,1.6c-0.1,0.3-0.1,0.5-0.2,0.8s-0.2,0.5-0.2,0.8c-0.1,0.3-0.2,0.5-0.3,0.7c-0.1,0.2-0.2,0.5-0.3,0.7
					c-0.1,0.2-0.2,0.5-0.3,0.7c-0.1,0.2-0.2,0.4-0.3,0.7c-0.1,0.2-0.2,0.4-0.3,0.6c-0.1,0.2-0.2,0.4-0.4,0.6
					c-0.1,0.2-0.2,0.4-0.3,0.6c-0.1,0.2-0.2,0.4-0.4,0.6c-0.1,0.2-0.2,0.4-0.4,0.5c-0.1,0.2-0.2,0.3-0.4,0.5c-0.5,0.6-1,1.2-1.4,1.7
					c-0.1,0.1-0.2,0.2-0.3,0.3c-0.1,0.1-0.2,0.2-0.3,0.3c-0.2,0.2-0.4,0.4-0.6,0.5c-0.2,0.2-0.3,0.3-0.5,0.4
					c-0.1,0.1-0.3,0.2-0.4,0.3C452,378.3,451.9,378.3,451.9,378.2C451.9,378.3,451.8,378.5,451.9,378.2z"/>
			</g>
		</g>
	</g>
	<path class="st56" d="M448.3,383.2c-1,0-2-0.3-2.9-0.8c-0.2,0.3-0.4,0.6-0.4,0.9c0,3.4,0.6,6.2,6.6,6.2s6.6-2.8,6.6-6.2
		c0-0.3-0.1-0.6-0.3-0.8C454.8,383.3,451.4,383.4,448.3,383.2z"/>
</g>
<g class="st58">
	<path class="st59" d="M53.1,260.2c-3.6-4.9-22.6-5-26.5-0.2c1.9,1,4,1.5,6.1,1.7C39.4,262.2,46.5,261.8,53.1,260.2z"/>
	<g>
		<polygon class="st59" points="53.1,260.6 51.4,260.6 44.8,245.4 46.5,245.4 		"/>
		<path class="st57" d="M65.4,215.1c0,17-16.8,34.9-25.9,34.9c-9,0-25.5-17.9-25.5-34.9s11.4-24.6,25.6-24.6
			C53.9,190.5,65.4,198.1,65.4,215.1z"/>
		<g>
			<g>
				<defs>
					<path id="SVGID_9_" d="M65.4,215.1c0,17-16.8,34.9-25.9,34.9c-9,0-25.5-17.9-25.5-34.9s11.4-24.6,25.6-24.6
						C53.9,190.5,65.4,198.1,65.4,215.1z"/>
				</defs>
				<clipPath id="SVGID_10_">
					<use xlink:href="#SVGID_9_"  style="overflow:visible;"/>
				</clipPath>
				<path class="st64" d="M39.5,251.6c-0.1-0.2-0.2-0.6-0.2-1c-0.1-0.4-0.2-0.8-0.4-1.3c-0.2-1-0.6-2.1-1-3.3
					c-0.4-1.3-0.8-2.7-1.3-4.2c-0.1-0.4-0.2-0.8-0.3-1.1c-0.1-0.4-0.2-0.8-0.3-1.2c-0.1-0.4-0.2-0.8-0.4-1.2
					c-0.1-0.4-0.2-0.9-0.3-1.3c-0.1-0.4-0.2-0.9-0.3-1.3c-0.1-0.5-0.2-0.9-0.3-1.4c-0.2-0.9-0.4-1.9-0.6-2.7c-0.2-0.5-0.2-1-0.3-1.4
					c-0.1-0.5-0.2-1-0.3-1.5c-0.1-0.5-0.2-1-0.2-1.5c-0.1-0.5-0.2-1-0.2-1.5s-0.2-1-0.2-1.5s-0.2-1-0.2-1.5c-0.1-0.5-0.1-1-0.2-1.5
					c0-0.2-0.1-0.5-0.1-0.7l-0.1-0.7c-0.1-1-0.2-1.9-0.2-2.9c0-0.5,0-1,0-1.5s0-1,0-1.5c0-0.2,0-0.5,0-0.7s0-0.5,0-0.7
					c0-0.2,0-0.5,0-0.7c0-0.2,0-0.5,0-0.7c0-0.5,0.1-1,0.1-1.5c0.1-0.5,0.1-1,0.2-1.4c0.2-1.9,0.4-3.6,0.7-5.4
					c0.3-1.7,0.6-3.4,1-4.9c0.2-0.7,0.3-1.5,0.6-2.2c0.2-0.7,0.3-1.4,0.5-2c0.3-1.3,0.6-2.4,0.9-3.3c0.2-0.5,0.2-0.9,0.3-1.3
					c0.1-0.4,0.2-0.7,0.2-1c0.2-0.5,0.2-0.8,0.2-0.8s-0.2,0.2-0.6,0.5c-0.2,0.2-0.5,0.4-0.7,0.6c-0.3,0.2-0.6,0.6-1,0.9
					c-0.4,0.3-0.7,0.7-1.1,1.2c-0.4,0.4-0.9,0.9-1.3,1.5c-0.2,0.2-0.5,0.6-0.6,0.8c-0.2,0.3-0.5,0.6-0.7,0.9c-0.2,0.3-0.5,0.6-0.7,1
					c-0.2,0.3-0.5,0.6-0.7,1c-1,1.5-1.9,3.1-2.7,4.9c-0.8,1.9-1.6,3.8-2.2,6c-0.6,2.1-1,4.4-1.2,6.7c-0.1,1.1-0.2,2.3-0.2,3.5
					c0,0.6,0,1.2,0,1.8v0.4v0.4l0.1,0.9l0.1,0.9c0,0.3,0.1,0.6,0.1,0.9c0.1,0.6,0.2,1.1,0.2,1.8c0.2,1.1,0.4,2.3,0.7,3.4
					c0.2,0.6,0.2,1.1,0.4,1.7c0.2,0.6,0.3,1,0.5,1.6c0.2,0.6,0.4,1,0.6,1.5c0.2,0.5,0.4,1,0.6,1.5c0.2,0.5,0.4,1,0.6,1.5
					c0.2,0.5,0.5,1,0.6,1.5c0.2,0.5,0.5,0.9,0.7,1.4c0.2,0.5,0.5,0.9,0.7,1.3c0.2,0.4,0.5,0.8,0.7,1.3c0.2,0.4,0.5,0.8,0.8,1.2
					c0.2,0.4,0.5,0.7,0.7,1.1c0.2,0.3,0.5,0.7,0.8,1c1,1.4,2,2.6,2.9,3.6c0.2,0.2,0.5,0.5,0.7,0.7c0.2,0.2,0.4,0.5,0.6,0.6
					c0.4,0.4,0.8,0.8,1.2,1.1c0.4,0.3,0.7,0.6,1,0.9c0.3,0.2,0.6,0.5,0.7,0.6c0.4,0.3,0.6,0.5,0.6,0.5S39.7,252.1,39.5,251.6z"/>
			</g>
			<g>
				<defs>
					<path id="SVGID_11_" d="M65.4,215.1c0,17-16.8,34.9-25.9,34.9c-9,0-25.5-17.9-25.5-34.9s11.4-24.6,25.6-24.6
						C53.9,190.5,65.4,198.1,65.4,215.1z"/>
				</defs>
				<clipPath id="SVGID_12_">
					<use xlink:href="#SVGID_11_"  style="overflow:visible;"/>
				</clipPath>
				<path class="st65" d="M40.2,251.1c0.1-0.2,0.2-0.6,0.2-1c0.1-0.4,0.2-0.8,0.4-1.2c0.2-1,0.6-2.1,1-3.3c0.4-1.3,0.8-2.7,1.3-4.2
					c0.1-0.4,0.2-0.8,0.3-1.1c0.1-0.4,0.2-0.8,0.3-1.2s0.2-0.8,0.4-1.2c0.1-0.4,0.2-0.9,0.3-1.3c0.1-0.4,0.2-0.9,0.3-1.3
					c0.1-0.5,0.2-0.9,0.3-1.4c0.2-0.9,0.4-1.9,0.6-2.7c0.2-0.5,0.2-1,0.3-1.4c0.1-0.5,0.2-1,0.3-1.5c0.1-0.5,0.2-1,0.2-1.5
					c0.1-0.5,0.2-1,0.2-1.5c0.1-0.5,0.2-1,0.2-1.5s0.2-1,0.2-1.5c0.1-0.5,0.1-1,0.2-1.5c0-0.2,0.1-0.5,0.1-0.7l0.1-0.7
					c0.1-1,0.2-1.9,0.2-2.9c0-0.5,0-1,0-1.5s0-1,0-1.5c0-0.2,0-0.5,0-0.7s0-0.5,0-0.7s0-0.5,0-0.7c0-0.2,0-0.5,0-0.7
					c0-0.5-0.1-1-0.1-1.5c-0.1-0.5-0.1-1-0.2-1.4c-0.2-1.9-0.4-3.6-0.7-5.4c-0.3-1.7-0.6-3.4-1-4.9c-0.2-0.7-0.4-1.5-0.6-2.2
					c-0.2-0.7-0.3-1.4-0.6-2c-0.3-1.3-0.6-2.4-0.9-3.3c-0.2-0.5-0.2-0.9-0.3-1.3c-0.1-0.4-0.2-0.6-0.2-1c-0.2-0.5-0.2-0.8-0.2-0.8
					s0.2,0.2,0.6,0.5c0.2,0.2,0.5,0.4,0.7,0.6c0.3,0.2,0.6,0.6,1,0.9c0.4,0.3,0.7,0.7,1.2,1.2c0.4,0.4,0.9,0.9,1.3,1.5
					c0.2,0.2,0.5,0.6,0.7,0.8c0.2,0.3,0.5,0.6,0.7,0.9c0.2,0.3,0.5,0.6,0.7,1c0.2,0.3,0.5,0.6,0.7,1c1,1.5,1.9,3.1,2.7,4.9
					c0.8,1.9,1.6,3.8,2.2,5.9c0.6,2.1,1,4.4,1.2,6.7c0.2,1.1,0.2,2.3,0.2,3.5c0,0.6,0,1.2,0,1.8v0.4v0.4l-0.1,0.9L57,221
					c0,0.3-0.1,0.6-0.1,0.9c-0.1,0.6-0.2,1.1-0.2,1.8c-0.2,1.1-0.4,2.3-0.7,3.4c-0.2,0.6-0.2,1.1-0.5,1.7c-0.2,0.6-0.3,1-0.5,1.6
					c-0.2,0.6-0.4,1-0.6,1.5s-0.4,1-0.6,1.5c-0.2,0.5-0.4,1-0.6,1.5c-0.2,0.5-0.5,1-0.7,1.5c-0.2,0.5-0.5,0.9-0.7,1.4
					c-0.2,0.5-0.5,0.9-0.7,1.3s-0.5,0.8-0.7,1.2c-0.2,0.4-0.5,0.8-0.8,1.2c-0.2,0.4-0.5,0.7-0.7,1.1c-0.2,0.3-0.5,0.7-0.8,1
					c-1,1.4-2,2.6-3,3.6c-0.2,0.2-0.5,0.5-0.7,0.7c-0.2,0.2-0.5,0.5-0.6,0.6c-0.4,0.4-0.8,0.8-1.2,1.1c-0.4,0.3-0.7,0.6-1,0.9
					c-0.3,0.2-0.6,0.5-0.7,0.6c-0.4,0.3-0.6,0.5-0.6,0.5S40.1,251.7,40.2,251.1z"/>
			</g>
		</g>
	</g>
	<path class="st56" d="M32.7,261.7c-2-0.1-4.1-0.7-6.1-1.7c-0.5,0.6-0.7,1.2-0.7,1.9c0,7.3,1.3,13.2,13.9,13.2s13.9-5.9,13.9-13.2
		c0-0.6-0.2-1.2-0.6-1.8C46.5,261.8,39.4,262.2,32.7,261.7z"/>
</g>
<g>
	<path class="st56" d="M862.7,132.4L862.7,132.4L862.7,132.4c0-6.4,6.6-11.6,14.9-11.6c1.8,0,3.5,0.2,5,0.7
		c0.8-5.9,7.1-10.4,14.8-10.4c7.8,0,14.2,4.7,14.8,10.7c1.8-0.6,3.8-0.9,5.8-0.9c8.2,0,14.8,5.2,14.8,11.6c8.2,0,14.9,5.2,14.9,11.6
		c0,6.4-6.6,11.6-14.9,11.6c-3.2,0-6.2-0.8-8.7-2.2c-1,5.7-7.2,10-14.7,10c-6.9,0-12.7-3.7-14.4-8.7c-2.6,3.3-7.3,5.4-12.6,5.4
		c-5.5,0-10.3-2.4-12.9-5.9c-2.1,0.8-4.4,1.3-6.9,1.3c-8.2,0-14.8-5.2-14.8-11.6C847.8,137.6,854.5,132.4,862.7,132.4z"/>
	<path class="st57" d="M870.1,132.2L870.1,132.2L870.1,132.2c0-5.3,5.5-9.7,12.4-9.7c1.5,0,2.9,0.2,4.2,0.6
		c0.6-4.9,5.9-8.7,12.3-8.7c6.5,0,11.8,3.9,12.3,8.9c1.5-0.5,3.1-0.8,4.9-0.8c6.8,0,12.4,4.3,12.4,9.7c6.8,0,12.4,4.3,12.4,9.7
		s-5.5,9.7-12.4,9.7c-2.7,0-5.2-0.7-7.2-1.8c-0.8,4.7-6,8.3-12.2,8.3c-5.8,0-10.6-3.1-12-7.3c-2.2,2.7-6.1,4.5-10.5,4.5
		c-4.6,0-8.6-2-10.7-4.9c-1.7,0.7-3.7,1.1-5.7,1.1c-6.8,0-12.4-4.3-12.4-9.7S863.3,132.2,870.1,132.2z"/>
</g>
<g>
	<g>
		<path class="st66" d="M383.9,435l-2.8-0.7v1c0,0,1.8,1,1.9,2.9c0,1.9-1.7,2.9-1.7,2.9v1.1l3.9-1.5
			C383.8,439.1,383.1,437.1,383.9,435z"/>
		<path class="st67" d="M383.9,435c-0.8,2.1-0.1,4.1,1.3,5.6l8.5-3.2L383.9,435z"/>
	</g>
	<g>
		<path class="st68" d="M381.8,454.3c0,0.2-0.2,0.4-0.4,0.4l0,0c-0.2,0-0.4-0.2-0.4-0.4l-0.3-21.5c0-0.2,0.2-0.4,0.4-0.4l0,0
			c0.2,0,0.4,0.2,0.4,0.4L381.8,454.3z"/>
		<circle class="st68" cx="381.1" cy="433" r="1"/>
	</g>
	<g>
		<path class="st69" d="M358,478.8l-7.9-0.1c0,0,0.7,4,0.8,9.6c2.3-1,4.7-1.9,7.1-2.6C358.1,483.5,358.1,481.2,358,478.8z"/>
		<path class="st70" d="M365.6,484.4c0.1-1.8,0.1-3.7,0.1-5.5l-7.8-0.1c0.1,2.3,0.1,4.7,0,7C360.5,485.1,363,484.6,365.6,484.4z"/>
		<path class="st69" d="M374.6,479l-8.8-0.1c0,1.8,0,3.7-0.1,5.5c0.2,0,0.5,0,0.7-0.1c2.7-0.2,5.5-0.4,8.3-0.5
			C374.6,482.2,374.6,480.6,374.6,479z"/>
		<path class="st70" d="M381.8,479l-7.2-0.1c0,1.6,0.1,3.2,0.1,4.9c2.8-0.1,5.6-0.2,8.4-0.1c0-1.6,0-3.2,0.1-4.7L381.8,479z"/>
		<path class="st70" d="M391,478.7c-0.1,1.8-0.1,3.6,0,5.4c2.6,0.2,5.2,0.5,7.8,0.9c0.1-2.2,0.2-4.4,0.6-6.6L391,478.7z"/>
		<path class="st69" d="M406.7,478.1l-7.3,0.3c-0.4,2.2-0.6,4.4-0.6,6.6c2.3,0.4,4.6,0.9,6.8,1.4
			C405.5,483.6,405.7,480.7,406.7,478.1z"/>
		<path class="st70" d="M413.5,477.8l-6.7,0.3c-1,2.7-1.3,5.5-1.1,8.4c2.5,0.7,5,1.4,7.4,2.4C412.8,482.5,413.5,477.8,413.5,477.8z"
			/>
		<path class="st69" d="M391,478.7l-7.8,0.3c0,1.6-0.1,3.2-0.1,4.7c2.6,0,5.3,0.1,7.9,0.3C390.9,482.3,390.9,480.5,391,478.7z"/>
		<path class="st71" d="M350.9,488.4c0.1,6.3-0.5,14.5-3.6,21.5l5.7-0.1c2.7-7.8,4.6-15.8,5-24C355.6,486.5,353.2,487.4,350.9,488.4
			z"/>
		<path class="st69" d="M358,485.8c-0.4,8.2-2.3,16.2-5,24l8.9-0.1c2.1-8.4,3.4-16.8,3.7-25.3C363,484.6,360.5,485.1,358,485.8z"/>
		<path class="st71" d="M366.4,484.3c-0.2,0-0.5,0-0.7,0.1c-0.4,8.5-1.6,16.9-3.7,25.3l10.8-0.2c1.6-8.4,2-17.1,2-25.6
			C371.9,484,369.1,484.1,366.4,484.3z"/>
		<path class="st69" d="M382.9,499.2C382.9,499.3,382.9,499.3,382.9,499.2C382.9,499.3,382.9,499.3,382.9,499.2s0-0.1,0-0.2
			C382.9,499.1,382.9,499.2,382.9,499.2c0.2-5.2,0.2-10.4,0.2-15.5c-2.8,0-5.6,0-8.4,0.1c0,8.6-0.4,17.3-2,25.6l9.6-0.1h0.2
			C382.5,506,383.1,502.6,382.9,499.2z"/>
		<path class="st71" d="M391,484c-2.6-0.2-5.3-0.3-7.9-0.3c0,5.2,0,10.4-0.2,15.5c0.2,3.3-0.4,6.7-0.4,10.1l11.9-0.2
			C392.7,500.8,391.2,492.5,391,484z"/>
		<path class="st69" d="M398.8,485c-2.6-0.4-5.2-0.7-7.8-0.9c0.3,8.4,1.7,16.8,3.4,25.1l7.8-0.1C400.2,501,398.6,492.9,398.8,485z"
			/>
		<path class="st71" d="M406,489.8c-0.2-1.1-0.3-2.2-0.4-3.3c-2.2-0.6-4.5-1.1-6.8-1.4c-0.2,8,1.4,16.1,3.4,24l8.7-0.1
			C408.8,502.8,407.2,496.4,406,489.8z"/>
		<path class="st69" d="M410.9,508.9l6.3-0.1c-3-6.4-4-13.9-4.2-20c-2.4-1-4.9-1.7-7.4-2.4c0.1,1.1,0.2,2.2,0.4,3.3
			C407.2,496.4,408.8,502.8,410.9,508.9z"/>
		<path class="st70" d="M378.1,457.3c-1.4,0-2.7,0-4.1,0c-2.9,3.8-6.3,7.1-9.8,10c2.2,0.2,4.3,0.2,6.5,0.2
			C373.8,464.7,376.3,461.4,378.1,457.3z"/>
		<path class="st69" d="M378.1,457.3c-1.8,4-4.4,7.4-7.4,10.3c2.6,0,5.3-0.1,7.9-0.2c1.1-3.3,1.9-6.7,2.2-10.1
			C380,457.4,379,457.3,378.1,457.3z"/>
		<path class="st70" d="M383.5,457.4c-0.9,0-1.8,0-2.7,0c-0.3,3.4-1,6.8-2.2,10.1c1.7-0.1,3.5-0.2,5.2-0.2
			C383.3,464,383.2,460.7,383.5,457.4z"/>
		<path class="st69" d="M383.5,457.4c-0.4,3.3-0.2,6.6,0.4,9.8c2.2-0.1,4.5-0.2,6.7-0.3c-1.9-2.9-3.4-6-4.3-9.4
			C385.4,457.5,384.5,457.4,383.5,457.4z"/>
		<path class="st70" d="M399,467c-3.5-2.7-6.9-5.8-9.8-9.4c-1,0-1.9-0.1-2.9-0.1c0.9,3.4,2.4,6.6,4.3,9.4
			C393.4,466.9,396.2,466.8,399,467z"/>
		<path class="st69" d="M378.7,467.4c-1.6,4.6-3.9,8.9-6.8,12.7l9.9,0.5l0,0l0,0l6.3-0.5c-1.9-4.2-3.4-8.5-4.2-12.9
			C382.2,467.3,380.4,467.4,378.7,467.4z"/>
		<path class="st71" d="M390.6,466.9c-2.2,0.1-4.5,0.2-6.7,0.3c0.8,4.4,2.3,8.8,4.2,12.9l13.2-1.1
			C397.4,475.3,393.5,471.4,390.6,466.9z"/>
		<path class="st69" d="M399,467c-2.8-0.1-5.6-0.1-8.5,0c2.9,4.5,6.8,8.4,10.7,12.1l15.5-1.3C416.8,477.8,407.9,473.9,399,467z"/>
		<path class="st71" d="M370.8,467.6c-4.9,4.7-11,8.3-17,11.6l18.1,0.9c2.9-3.8,5.2-8.1,6.8-12.7
			C376.1,467.6,373.4,467.6,370.8,467.6z"/>
		<path class="st69" d="M364.3,467.4c-8.7,7.2-17.5,11.4-17.5,11.4l7,0.4c6-3.3,12.1-6.9,17-11.6
			C368.6,467.6,366.4,467.6,364.3,467.4z"/>
		<path class="st67" d="M351.3,483.5c1.6,0,3-1,3.8-2.4c0.8,1.4,2.2,2.3,3.9,2.3c1.6,0,3-1,3.8-2.4c0.8,1.4,2.2,2.3,3.9,2.3
			c1.6,0,3-1,3.8-2.4c0.8,1.4,2.2,2.3,3.9,2.3c1.6,0,3-1,3.8-2.4c0.8,1.4,2.2,2.3,3.9,2.3c1.6,0,3-1,3.8-2.4
			c0.8,1.4,2.2,2.3,3.9,2.3c1.6,0,3-1,3.8-2.4c0.8,1.4,2.2,2.3,3.9,2.3c1.6,0,3-1,3.8-2.4c0.8,1.4,2.2,2.3,3.9,2.3
			c1.6,0,3-1,3.8-2.4c0.8,1.4,2.2,2.3,3.9,2.3c2.4,0,4.4-2.2,4.4-4.8l-70,1.1C346.8,481.5,348.8,483.6,351.3,483.5z"/>
		<path class="st71" d="M377.8,451.5c-0.3,0.6-0.7,1.2-1,1.8l0,0c-4.6,7.7-11.2,8.2-11.2,8.2l10.4,0.9c2.4-4.1,3.7-8.8,4.7-13.6
			C379.7,449.1,378.6,449.9,377.8,451.5z"/>
		<path class="st69" d="M382.6,449.1c-0.6-0.3-1.3-0.4-1.9-0.3c-1,4.8-2.3,9.5-4.7,13.6l5.5,0.5l0,0l0,0l5.3-0.6
			C384.1,458.5,382.3,453.8,382.6,449.1z"/>
		<path class="st71" d="M386,453.3c-0.4-0.6-0.7-1.2-1.1-1.8c-0.6-1.1-1.4-1.9-2.3-2.4c-0.3,4.7,1.4,9.4,4.2,13.2l10.6-1.2
			C397.4,461.1,390.8,460.7,386,453.3z"/>
		<path class="st67" d="M381.5,461.3l-15.9,0.2c0,2.6,2.1,4.7,4.5,4.7c1.6,0,3-1,3.8-2.4c0.8,1.4,2.2,2.3,3.9,2.3c1.6,0,3-1,3.8-2.4
			l0,0l0,0c0.8,1.4,2.2,2.3,3.9,2.3c1.6,0,3-1,3.8-2.4c0.8,1.4,2.2,2.3,3.9,2.3c2.4,0,4.4-2.2,4.4-4.8L381.5,461.3z"/>
		<polygon class="st72" points="394.3,509.1 382.6,485.4 372.3,509.5 		"/>
		<polygon class="st67" points="394.3,509.1 398.9,505.8 382.6,485.4 		"/>
		<polygon class="st67" points="382.6,485.4 372.3,509.5 368.1,505.7 		"/>
		<path class="st67" d="M385.4,450c0,0.5-0.4,0.9-0.8,0.9L378,451c-0.5,0-0.8-0.4-0.8-0.9v-0.9c0-0.5,0.4-0.9,0.8-0.9l6.6-0.1
			c0.5,0,0.8,0.4,0.8,0.9V450z"/>
	</g>
</g>
</svg>
