<!--?xml version="1.0" encoding="utf-8"?-->
<!-- Generator: Adobe Illustrator 19.0.1, SVG Export Plug-In . SVG Version: 6.00 Build 0)  -->
<svg version="1.1" id="Layer_1" xmlns="http://www.w3.org/2000/svg" xmlns:xlink="http://www.w3.org/1999/xlink" x="0px" y="0px" viewBox="385.9 -106.1 316.3 818.4" xml:space="preserve">
<style type="text/css">
	.st0{fill:none;stroke:#808080;stroke-width:6;stroke-miterlimit:10;}
	.st1{fill:none;stroke:#3B97D2;stroke-width:6;stroke-miterlimit:10;}
	.st2{fill:none;stroke:#4EB96F;stroke-width:6;stroke-miterlimit:10;}
	.st3{fill:none;stroke:#E64D3C;stroke-width:6;stroke-miterlimit:10;}
	.st4{fill:none;stroke:#F19B20;stroke-width:6;stroke-miterlimit:10;}
</style>
<path id="XMLID_13_" class="st0 JKFRaoWI_0" d="M504.9,680.1c0.5-11.6,0.8-22.8,1.5-34c0.3-6.2,0.6-12.4,0.9-18.6c0.5-10.2,1-20.4,1.4-30.5
	c0.3-6.3,0.6-12.6,0.9-18.9c0.5-10.1,1-20.2,1.4-30.3c0.2-6.3,0.6-12.6,0.9-18.9c0.3-6.2,0.7-12.4,0.9-18.6c0.1-2.4-0.8-3.9-2.7-5.2
	c-6.5-4.3-12.6-9.1-18.1-14.7c-11.2-11.2-18.5-24.4-21.4-40.1c-2.4-13.3-5.5-26.4-8.6-39.6c-3-12.6-6.1-25-10-37.4
	c-5.5-17.6-13.9-33.8-23.8-49.3c-7.2-11.3-14.4-22.6-21.5-33.9c-0.9-1.4-2.7-3.3-1.2-4.8c1.3-1.4,3.1,0.5,4.5,1.3
	c6.2,3.7,11.8,8.4,17.3,13c6.6,5.4,13,10.8,19.5,16.3c12,10.1,21.3,22,26.7,36.8c4.6,12.7,8.2,25.8,12.2,38.7
	c4.8,15.6,9.9,31,17.4,45.5c4.7,9,10.2,17.5,17.7,24.5c5.3,5,11.3,8,18.6,8.7c7,0.8,13.8,0.3,20.4-2.4c5.3-2.2,9.4-6,13.1-10.3
	c13.1-15.4,20.1-33.9,26.3-52.8c4.9-15.2,8.8-30.6,13.5-45.9c4.2-13.5,10.1-25.9,20.1-36.1c6.2-6.4,13.1-11.9,19.7-17.8
	c6.7-6,13.5-11.8,20.6-17.2c2.2-1.7,4.5-3.3,7.1-4.5c0.6-0.3,1.4-0.8,2-0.3c0.7,0.6,0.5,1.5,0.2,2.2c-0.9,1.8-1.8,3.6-2.9,5.4
	c-8.4,13.8-17.2,27.4-25.3,41.5c-8,13.8-14.1,28.4-18.5,43.8c-6.2,21.4-10.4,43.2-14.9,64.9c-1.3,6.5-2.2,13-4.1,19.3
	c-2.6,8.7-7.1,16.4-12.8,23.4c-6.9,8.6-15.1,15.7-24.2,21.7c-1.6,1-2.1,2.3-1.8,4.1c0.5,2.8,0.3,5.7,0.5,8.6
	c0.6,6.6,0.6,13.2,1.1,19.8c0.7,10.2,1.3,20.5,1.9,30.7c0.4,7.2,0.9,14.4,1.3,21.6c0.6,10.4,1.1,20.8,1.9,31.2
	c0.5,7.2,0.9,14.4,1.4,21.6c0.6,10.5,1.2,21,2,31.4c0.2,2.5,0.4,5,0.4,7.5c0,5.2-2.4,9.1-7,11.6c-6.2,3.3-12.9,4.9-19.8,5.9
	c-4.3,0.6-8.6,1-13,1.4c-3.6,0.4-7.2-0.3-10.7-0.5c-6.6-0.5-13.1-1.5-19.4-3.6c-2.6-0.9-5.4-1.7-7.7-3.3
	C506,689.8,504.3,685.2,504.9,680.1z"></path>
<path id="XMLID_9_" class="st0 JKFRaoWI_1" d="M544.5,363.7c22.1-0.4,41.7,17.4,41.6,41.4c0,22.9-18,41.5-41.9,41.5
	c-22.7,0-41.4-18.8-41.3-41.7C503.1,381.9,522,363.3,544.5,363.7z"></path>
<path id="XMLID_12_" class="st1 JKFRaoWI_2" d="M576,298.7c4.6-3.2,9.2-6.3,13.7-9.6c20.5-15,40.5-30.5,59.9-46.9c10.4-8.8,19.1-19.1,23.5-32.3
	c1.7-5.1,2.4-10.3,3.1-15.6c0.4-2.5,1.1-5,3.4-6.9c1.5,4.1,2.1,8.2,2.5,12.2c3.2,27.5-2.8,52.6-20.3,74.4
	c-11.1,13.9-25.2,24.4-40.6,33c-16.5,9.2-34.1,15.3-52.6,18.9c-3.1,0.6-6.2,0.9-9.3,0.4c-5.3-0.8-8.2-4.1-9.6-9
	c-1.3-4.8-1.4-9.7-1.5-14.6c-0.5-17.6,1.7-34.7,8.1-51.2c6.3-16.1,16.1-29.6,28.5-41.6c11.9-11.5,24.7-22,37-33.1
	c13.1-11.8,23.3-25.8,30-42.2c0.2-0.6,0.5-1.1,0.8-1.7c0.7-1.2,1.5-1.6,2.6-0.5c7.7,7.6,13.3,16.4,14.4,27.4
	c2.2,22-5.3,40.7-20,56.9c-15.1,16.6-30.9,32.7-46.5,48.8c-9.7,10-18.4,20.8-26.9,31.8c-0.2,0.3-0.4,0.6-0.5,0.9
	C575.8,298.5,575.9,298.6,576,298.7z"></path>
<path id="XMLID_11_" class="st2 JKFRaoWI_3" d="M407.9,189.4c2.5,1.9,3.4,4.5,3.6,7.1c1.8,21,13.3,36.3,29.1,48.8
	c23.6,18.7,47.4,37.2,72.6,53.8c0.2,0.1,0.4,0.2,1.2,0.6c-4.4-5.4-8.3-10.2-12.3-15c-11.9-14.3-25.6-26.9-38.6-40.2
	c-9.8-10-19.8-19.7-28.9-30.3c-12.1-14.1-17.9-30.5-17.3-49.1c0.4-12.1,5.8-22,14.1-30.5c1.4-1.5,2.2-1.2,3.2,1
	c3.9,8.7,8.5,17,14.3,24.6c8.4,10.9,18.6,19.8,29.2,28.5c14.2,11.6,28.3,23.4,39.6,38c12.8,16.6,19.8,35.6,22.3,56.3
	c1.2,10,1.4,19.9,0.5,29.9c-0.2,1.7-0.5,3.4-1,5c-1.6,5.8-5.1,8.6-11.1,8.9c-6.5,0.4-12.7-1.3-18.9-2.9
	c-26.7-6.5-50.9-18.3-71.5-36.7c-24.3-21.8-34.8-49.3-32.9-81.6C405.5,200.2,406.3,194.8,407.9,189.4z"></path>
<path id="XMLID_10_" class="st3 JKFRaoWI_4" d="M521,133.2c2.7,2.2,5.3,4.4,8.1,6.3c8,5.4,16.6,9.4,26.2,10.5c12.3,1.5,23.1-2.3,32.6-10.1
	c0.8-0.7,1.7-1.4,2.5-2.1c0.2-0.1,0.3-0.3,0.9-1c-4.3,1.6-8.1,2.6-12.1,2.8c-14.1,0.4-26.2-4.5-36.5-14.1c-2.5-2.3-3.3-5.2-2.8-8.5
	c1.3-10.1,6-18.6,12.2-26.4c3.5-4.3,3.5-4.2,7.1-0.2c3.8,4.3,8.1,8,13.2,10.7c9.9,5.4,19.8,5.3,29.6-0.3c6.9-4,12.2-9.6,17-15.9
	c1.9-2.5,2.3-2.5,3.8,0.2c11.7,20.8,13,42.1,2.3,63.6c-10.2,20.5-27.7,31.3-49.8,35.2c-8.3,1.5-16.6,2-24.9,0.3
	c-15.1-3-24.1-12.5-28.3-27c-2-7-2.6-14.3-1.9-21.6c0.1-0.5,0.1-1.1,0.3-1.6C520.6,133.7,520.8,133.6,521,133.2z"></path>
<path id="XMLID_14_" class="st4 JKFRaoWI_5" d="M565.3-91.2c10.8,4.3,18.4,12.6,25.8,21c7.3,8.2,14.3,16.7,18.2,27.3
	c7.3,19.5,5.2,38.3-3.6,56.7c-4.8,10.1-11.7,18.6-18.8,27c-17.4,20.5-35.7,40.1-54.3,59.4c-11.8,12.2-19.9,26.4-22.4,43.3
	c-1.9,13-0.4,25.7,4.3,37.9c0.2,0.4,0.3,0.9,0.5,1.3c0,0.1,0,0.1-0.1,0.4c-4.8-1.2-9.4-3-14-5c-12.6-5.5-24.3-12.6-33.1-23.4
	c-7.3-9-11.5-19.1-10.6-30.9c0.7-9.5,4.6-17.9,10-25.6c7.2-10.4,16.7-18.4,26.9-25.7c20.4-14.7,40.8-29.3,61.3-43.8
	c11.9-8.5,22.7-18.1,30.9-30.4c8.5-12.8,9.1-26.4,3.7-40.4c-0.3-0.9-0.8-1.7-1.4-3c-0.7,2-1.2,3.7-1.8,5.3
	c-3.9,12-8.7,23.6-17.2,33.2c-7.3,8.2-15.8,15.1-24.5,21.7c-20.1,15-40.9,28.8-63.4,40c-3.1,1.6-6.4,2.9-9.8,3.7
	c-0.9,0.2-1.8,0.4-2.8,0.4c-1.6,0-3.5,0.4-4.2-1.6c-0.7-1.8,0-3.3,1.4-4.6c6.6-6.5,13.1-13.2,19.8-19.6
	c15.7-15.2,32.1-29.7,48.3-44.3c13.7-12.2,23.1-27.1,26.5-45.5c1.9-10.4,1.5-20.7-1.4-30.8c-0.5-1.8-0.2-3,1.2-4
	C562.2-91.2,563.7-91.2,565.3-91.2z"></path>
<style>.JKFRaoWI_0{stroke-dasharray:1446 1448;stroke-dashoffset:1447;animation:JKFRaoWI_draw_0 3500ms ease-in-out 0ms infinite,JKFRaoWI_fade 3500ms linear 0ms infinite;}.JKFRaoWI_1{stroke-dasharray:262 264;stroke-dashoffset:263;animation:JKFRaoWI_draw_1 3500ms ease-in-out 0ms infinite,JKFRaoWI_fade 3500ms linear 0ms infinite;}.JKFRaoWI_2{stroke-dasharray:811 813;stroke-dashoffset:812;animation:JKFRaoWI_draw_2 3500ms ease-in-out 0ms infinite,JKFRaoWI_fade 3500ms linear 0ms infinite;}.JKFRaoWI_3{stroke-dasharray:813 815;stroke-dashoffset:814;animation:JKFRaoWI_draw_3 3500ms ease-in-out 0ms infinite,JKFRaoWI_fade 3500ms linear 0ms infinite;}.JKFRaoWI_4{stroke-dasharray:478 480;stroke-dashoffset:479;animation:JKFRaoWI_draw_4 3500ms ease-in-out 0ms infinite,JKFRaoWI_fade 3500ms linear 0ms infinite;}.JKFRaoWI_5{stroke-dasharray:1010 1012;stroke-dashoffset:1011;animation:JKFRaoWI_draw_5 3500ms ease-in-out 0ms infinite,JKFRaoWI_fade 3500ms linear 0ms infinite;}@keyframes JKFRaoWI_draw{100%{stroke-dashoffset:0;}}@keyframes JKFRaoWI_fade{0%{stroke-opacity:1;}88.57142857142857%{stroke-opacity:1;}100%{stroke-opacity:0;}}@keyframes JKFRaoWI_draw_0{0%{stroke-dashoffset: 1447}25.700076964063705%{ stroke-dashoffset: 0;}100%{ stroke-dashoffset: 0;}}@keyframes JKFRaoWI_draw_1{25.700076964063705%{stroke-dashoffset: 263}30.371203599550057%{ stroke-dashoffset: 0;}100%{ stroke-dashoffset: 0;}}@keyframes JKFRaoWI_draw_2{30.371203599550057%{stroke-dashoffset: 812}44.793085074891955%{ stroke-dashoffset: 0;}100%{ stroke-dashoffset: 0;}}@keyframes JKFRaoWI_draw_3{44.793085074891955%{stroke-dashoffset: 814}59.25048842578888%{ stroke-dashoffset: 0;}100%{ stroke-dashoffset: 0;}}@keyframes JKFRaoWI_draw_4{59.25048842578888%{stroke-dashoffset: 479}67.7579776212184%{ stroke-dashoffset: 0;}100%{ stroke-dashoffset: 0;}}@keyframes JKFRaoWI_draw_5{67.7579776212184%{stroke-dashoffset: 1011}85.71428571428571%{ stroke-dashoffset: 0;}100%{ stroke-dashoffset: 0;}}</style></svg>
