<?xml version="1.0" encoding="utf-8"?>
<!-- Generator: Adobe Illustrator 16.0.0, SVG Export Plug-In . SVG Version: 6.00 Build 0)  -->
<!DOCTYPE svg PUBLIC "-//W3C//DTD SVG 1.1//EN" "http://www.w3.org/Graphics/SVG/1.1/DTD/svg11.dtd">
<svg version="1.1" id="Layer_1" xmlns="http://www.w3.org/2000/svg" xmlns:xlink="http://www.w3.org/1999/xlink" x="0px" y="0px"
	 width="89px" height="184.5px" viewBox="100.5 65.5 89 184.5" enable-background="new 100.5 65.5 89 184.5" xml:space="preserve">
<path id="XMLID_13_" fill="none" stroke="#808080" stroke-width="2" stroke-miterlimit="10" d="M133.086,240.624
	c0.103-2.399,0.165-4.718,0.309-7.036c0.063-1.282,0.126-2.564,0.188-3.847c0.103-2.111,0.208-4.222,0.29-6.313
	c0.062-1.304,0.123-2.607,0.184-3.909c0.106-2.09,0.208-4.182,0.291-6.271c0.041-1.304,0.124-2.607,0.187-3.911
	c0.063-1.282,0.144-2.564,0.187-3.849c0.021-0.496-0.166-0.807-0.558-1.077c-1.346-0.888-2.608-1.881-3.746-3.04
	c-2.317-2.318-3.829-5.049-4.429-8.297c-0.496-2.751-1.137-5.463-1.778-8.192c-0.622-2.607-1.263-5.174-2.07-7.74
	c-1.139-3.642-2.875-6.992-4.926-10.201c-1.489-2.338-2.979-4.677-4.448-7.015c-0.185-0.289-0.559-0.683-0.248-0.993
	c0.27-0.291,0.641,0.104,0.932,0.27c1.282,0.765,2.442,1.738,3.579,2.69c1.365,1.116,2.69,2.233,4.035,3.372
	c2.481,2.091,4.408,4.553,5.523,7.614c0.952,2.629,1.697,5.339,2.525,8.008c0.993,3.229,2.047,6.416,3.601,9.413
	c0.972,1.864,2.109,3.622,3.661,5.069c1.098,1.036,2.338,1.657,3.851,1.801c1.447,0.166,2.854,0.063,4.22-0.495
	c1.097-0.456,1.944-1.243,2.71-2.13c2.71-3.189,4.159-7.017,5.442-10.926c1.015-3.146,1.821-6.332,2.795-9.498
	c0.867-2.794,2.088-5.36,4.157-7.47c1.283-1.325,2.711-2.462,4.076-3.684c1.387-1.242,2.793-2.442,4.263-3.559
	c0.455-0.353,0.931-0.683,1.47-0.931c0.124-0.063,0.289-0.165,0.414-0.063c0.145,0.124,0.103,0.311,0.04,0.456
	c-0.186,0.371-0.372,0.743-0.6,1.116c-1.738,2.855-3.56,5.67-5.236,8.586c-1.654,2.857-2.917,5.878-3.827,9.065
	c-1.282,4.428-2.151,8.938-3.082,13.427c-0.269,1.345-0.456,2.69-0.848,3.994c-0.538,1.799-1.471,3.394-2.65,4.843
	c-1.426,1.779-3.123,3.247-5.006,4.488c-0.333,0.208-0.436,0.476-0.372,0.849c0.103,0.578,0.063,1.18,0.103,1.778
	c0.124,1.366,0.124,2.731,0.227,4.1c0.145,2.108,0.269,4.241,0.395,6.352c0.082,1.488,0.187,2.979,0.27,4.468
	c0.124,2.151,0.228,4.305,0.392,6.458c0.104,1.488,0.187,2.979,0.289,4.468c0.125,2.173,0.249,4.344,0.415,6.497
	c0.041,0.518,0.084,1.034,0.084,1.552c0,1.075-0.499,1.884-1.449,2.4c-1.282,0.683-2.67,1.013-4.098,1.22
	c-0.89,0.126-1.778,0.206-2.688,0.289c-0.745,0.084-1.49-0.06-2.216-0.103c-1.365-0.103-2.71-0.309-4.014-0.745
	c-0.537-0.185-1.117-0.352-1.593-0.683C133.313,242.63,132.962,241.678,133.086,240.624z"/>
<path id="XMLID_9_" fill="none" stroke="#808080" stroke-width="2" stroke-miterlimit="10" d="M141.278,175.157
	c4.574-0.085,8.629,3.6,8.608,8.565c0,4.737-3.724,8.587-8.67,8.587c-4.697,0-8.567-3.891-8.546-8.63
	C132.713,178.921,136.624,175.072,141.278,175.157z"/>
<path id="XMLID_12_" fill="none" stroke="#3B97D2" stroke-width="2" stroke-miterlimit="10" d="M147.797,161.706
	c0.952-0.66,1.903-1.304,2.834-1.985c4.241-3.104,8.381-6.311,12.395-9.705c2.153-1.82,3.952-3.952,4.862-6.684
	c0.353-1.056,0.496-2.132,0.642-3.227c0.083-0.518,0.227-1.035,0.702-1.428c0.311,0.848,0.435,1.695,0.518,2.522
	c0.662,5.691-0.579,10.886-4.199,15.396c-2.298,2.877-5.215,5.05-8.4,6.827c-3.415,1.904-7.056,3.166-10.884,3.913
	c-0.644,0.124-1.282,0.184-1.926,0.081c-1.095-0.167-1.695-0.848-1.985-1.86c-0.27-0.995-0.29-2.01-0.31-3.022
	c-0.104-3.642,0.353-7.18,1.676-10.595c1.304-3.331,3.331-6.122,5.897-8.607c2.462-2.378,5.108-4.551,7.653-6.849
	c2.712-2.44,4.823-5.338,6.21-8.729c0.039-0.126,0.103-0.229,0.165-0.354c0.146-0.248,0.309-0.331,0.539-0.103
	c1.593,1.571,2.749,3.392,2.979,5.667c0.455,4.555-1.099,8.424-4.139,11.773c-3.125,3.437-6.395,6.767-9.62,10.098
	c-2.008,2.07-3.809,4.306-5.567,6.581c-0.041,0.063-0.082,0.124-0.104,0.186C147.756,161.665,147.775,161.687,147.797,161.706z"/>
<path id="XMLID_11_" fill="none" stroke="#4EB96F" stroke-width="2" stroke-miterlimit="10" d="M113.015,139.091
	c0.517,0.393,0.704,0.93,0.744,1.469c0.374,4.346,2.754,7.512,6.023,10.098c4.882,3.87,9.807,7.696,15.021,11.132
	c0.04,0.02,0.083,0.043,0.248,0.124c-0.909-1.117-1.717-2.11-2.547-3.104c-2.462-2.959-5.296-5.564-7.985-8.317
	c-2.028-2.069-4.096-4.077-5.98-6.27c-2.503-2.916-3.703-6.311-3.578-10.158c0.081-2.506,1.2-4.555,2.917-6.311
	c0.289-0.313,0.455-0.25,0.661,0.205c0.808,1.801,1.758,3.518,2.959,5.091c1.738,2.255,3.848,4.098,6.041,5.896
	c2.939,2.4,5.855,4.843,8.194,7.865c2.648,3.432,4.098,7.364,4.613,11.647c0.249,2.068,0.291,4.117,0.104,6.188
	c-0.041,0.352-0.104,0.702-0.206,1.032c-0.332,1.201-1.056,1.781-2.295,1.841c-1.347,0.083-2.629-0.27-3.913-0.598
	c-5.524-1.346-10.531-3.788-14.794-7.595c-5.028-4.511-7.201-10.2-6.808-16.884C112.517,141.326,112.683,140.209,113.015,139.091z"
	/>
<path id="XMLID_10_" fill="none" stroke="#E64D3C" stroke-width="2" stroke-miterlimit="10" d="M136.417,127.463
	c0.559,0.454,1.096,0.91,1.676,1.304c1.655,1.117,3.434,1.943,5.42,2.173c2.544,0.309,4.78-0.476,6.746-2.09
	c0.164-0.146,0.353-0.29,0.516-0.435c0.043-0.021,0.063-0.063,0.188-0.207c-0.891,0.33-1.677,0.539-2.503,0.578
	c-2.919,0.083-5.422-0.93-7.555-2.916c-0.518-0.476-0.681-1.076-0.579-1.76c0.27-2.09,1.243-3.849,2.525-5.463
	c0.724-0.889,0.724-0.869,1.469-0.04c0.786,0.887,1.676,1.654,2.731,2.212c2.049,1.117,4.098,1.097,6.124-0.063
	c1.429-0.826,2.524-1.986,3.518-3.288c0.394-0.519,0.476-0.519,0.786,0.04c2.421,4.305,2.692,8.713,0.477,13.161
	c-2.11,4.242-5.73,6.478-10.305,7.282c-1.717,0.313-3.436,0.415-5.152,0.063c-3.122-0.621-4.986-2.586-5.855-5.587
	c-0.413-1.448-0.539-2.957-0.394-4.469c0.021-0.103,0.021-0.229,0.063-0.331C136.335,127.567,136.374,127.544,136.417,127.463z"/>
<path id="XMLID_14_" fill="none" stroke="#F19B20" stroke-width="2" stroke-miterlimit="10" d="M145.583,81.031
	c2.233,0.891,3.807,2.607,5.337,4.346c1.512,1.697,2.959,3.455,3.768,5.649c1.51,4.034,1.075,7.923-0.747,11.73
	c-0.991,2.09-2.419,3.85-3.89,5.586c-3.601,4.242-7.386,8.298-11.234,12.292c-2.442,2.523-4.118,5.461-4.635,8.959
	c-0.392,2.689-0.083,5.317,0.891,7.842c0.039,0.083,0.061,0.186,0.103,0.27c0,0.02,0,0.02-0.021,0.082
	c-0.992-0.249-1.946-0.621-2.896-1.036c-2.607-1.137-5.029-2.607-6.849-4.841c-1.512-1.862-2.379-3.952-2.193-6.394
	c0.144-1.966,0.95-3.704,2.067-5.297c1.49-2.151,3.457-3.807,5.567-5.317c4.222-3.042,8.44-6.063,12.684-9.063
	c2.462-1.758,4.695-3.744,6.393-6.289c1.758-2.65,1.884-5.464,0.767-8.361c-0.063-0.187-0.165-0.352-0.291-0.62
	c-0.144,0.413-0.246,0.765-0.371,1.097c-0.809,2.482-1.802,4.883-3.56,6.869c-1.51,1.695-3.269,3.123-5.069,4.489
	c-4.157,3.105-8.464,5.958-13.118,8.277c-0.643,0.331-1.323,0.6-2.027,0.765c-0.187,0.043-0.374,0.083-0.58,0.083
	c-0.331,0-0.724,0.083-0.869-0.329c-0.144-0.375,0-0.684,0.291-0.953c1.367-1.345,2.711-2.731,4.096-4.055
	c3.249-3.146,6.643-6.146,9.994-9.166c2.833-2.525,4.78-5.608,5.483-9.415c0.393-2.151,0.312-4.285-0.289-6.374
	c-0.104-0.373-0.043-0.621,0.248-0.828C144.941,81.031,145.251,81.031,145.583,81.031z"/>
</svg>
